<?xml version="1.0" encoding="utf-8"?>
<!-- Generator: Adobe Illustrator 24.1.2, SVG Export Plug-In . SVG Version: 6.00 Build 0)  -->
<svg version="1.1" id="Layer_1" xmlns="http://www.w3.org/2000/svg" xmlns:xlink="http://www.w3.org/1999/xlink" x="0px" y="0px"
	 viewBox="0 0 484.2 271.3" style="enable-background:new 0 0 484.2 271.3;" xml:space="preserve">
<style type="text/css">
	.st0{fill:#BCE5F1;}
	.st1{fill:#FFF0B3;}
	.st2{fill:#FEE381;}
	.st3{opacity:0.5;fill:#FFC50F;}
	.st4{opacity:0.25;fill:url(#SVGID_1_);}
	.st5{opacity:0.5;fill:#FEE381;}
	.st6{opacity:0.33;fill:#FFC50F;}
	.st7{opacity:0.25;fill:url(#SVGID_2_);}
	.st8{fill:#88D4E7;}
	.st9{opacity:0.25;fill:url(#SVGID_3_);}
	.st10{opacity:0.25;fill:url(#SVGID_4_);}
	.st11{fill:none;stroke:#2BC2E1;stroke-width:1.8;stroke-miterlimit:10;}
	.st12{fill:#0C1F42;}
	.st13{fill:#325BA9;}
	.st14{fill:#51607A;}
	.st15{fill:#CFA38C;}
	.st16{fill:#C1C6CF;}
	.st17{fill:#F15938;}
	.st18{fill:#F37455;}
	.st19{fill:url(#SVGID_5_);}
	.st20{fill:#00B8D9;}
	.st21{fill:#2BC2E1;}
	.st22{opacity:0.25;fill:url(#SVGID_6_);}
	.st23{fill:#F89925;}
	.st24{fill:#FBAA19;}
	.st25{fill:#FFC50F;}
	.st26{fill:none;stroke:#FBAA19;stroke-width:1.4411;stroke-linecap:round;stroke-miterlimit:10;}
	.st27{fill:none;stroke:#2BC2E1;stroke-width:1.969;stroke-miterlimit:10;}
	.st28{opacity:0.5;fill:url(#SVGID_7_);enable-background:new    ;}
	.st29{fill:#9C7862;}
	.st30{fill:#172B4D;}
	.st31{fill:#926E5B;}
	.st32{fill:#F68C1F;}
	.st33{fill:url(#SVGID_8_);}
	.st34{fill:#E0E2E5;}
	.st35{opacity:5.000000e-02;fill:#0C1F42;}
	.st36{fill:#FEF9E6;}
	.st37{fill:#43536F;}
	.st38{fill:url(#SVGID_9_);}
	.st39{fill:url(#SVGID_10_);}
	.st40{fill:#253959;}
	.st41{fill:url(#SVGID_11_);}
	.st42{fill:none;stroke:#4169B2;stroke-width:0.2157;stroke-miterlimit:10;}
	.st43{fill:url(#SVGID_12_);}
	.st44{opacity:0.33;fill:#88D4E7;}
	.st45{opacity:0.25;fill:#2BC2E1;}
</style>
<g>
	<path class="st0" d="M361.8,142.5h-108c0,0-3.7-19.6-3.7-53.9s0-54.2,0-54.2h108c0,0,0,20.1,0,55.1S361.8,142.5,361.8,142.5z"/>
	<path class="st1" d="M359.9,261.1h-108c0,0-2.7-19.6-2.7-53.9s0-54.2,0-54.2h108c0,0,0,20.1,0,55.1S359.9,261.1,359.9,261.1z"/>
	<rect x="265" y="173.4" class="st2" width="81.7" height="4"/>
	<rect x="265" y="188.3" class="st2" width="20.7" height="4"/>
	<circle id="XMLID_196_" class="st2" cx="336.1" cy="232.9" r="10.6"/>
	<path class="st3" d="M340.3,240.2c-0.9-0.4-1.5-1.1-1.7-2h0c0,0,0-0.4,0-0.4l2.4,0c0.3,0,0.6-0.3,0.6-0.6l0-6.1
		c0-2.5-1.6-4.6-3.9-5.4c0,0,0,0,0,0c0,0-0.1,0-0.1,0c-0.4-0.1-0.9-0.2-1.4-0.3c-3-0.1-5.5,2.1-5.8,5c0,0.3,0,0.5,0,0.6
		c0,0.2,0,4.9,0,5.1c0,0,0,1.1,0,1.1c0,0.3,0.3,0.6,0.6,0.6l2.4,0c0,0,0,0.1,0,0.2c-0.2,0.9-0.8,1.8-1.7,2.1c-0.7,0.3-1.4,0.7-2,1.1
		c1.8,1.4,4.1,2.3,6.6,2.3c2.3,0,4.4-0.7,6.2-2C341.5,240.8,340.8,240.4,340.3,240.2z"/>
	<path class="st1" d="M0,142.5h108c0,0,2.7-19.6,2.7-53.9s0-54.2,0-54.2H2.7c0,0,0,20.1,0,55.1S0,142.5,0,142.5z"/>
	<rect x="17.1" y="53.2" class="st2" width="81.7" height="4"/>
	<rect x="17.1" y="68" class="st2" width="81.7" height="4"/>
	<rect x="17.1" y="82.9" class="st2" width="30.4" height="4"/>
	<linearGradient id="SVGID_1_" gradientUnits="userSpaceOnUse" x1="63.9657" y1="204.5837" x2="63.9657" y2="131.9625">
		<stop  offset="0" style="stop-color:#0C1F42;stop-opacity:0"/>
		<stop  offset="1" style="stop-color:#0C1F42"/>
	</linearGradient>
	<path class="st4" d="M65.4,183.4V178h-2.8v5.4c-3.6,1.4-6.3,8.1-6.3,16.1c0,9,3.4,16.4,7.7,16.4s7.7-7.3,7.7-16.4
		C71.6,191.5,68.9,184.8,65.4,183.4z"/>
	<path class="st1" d="M233.1,142.5h-108c0,0,1.3-19.6,1.3-53.9s0-54.2,0-54.2h108c0,0,0,20.1,0,55.1S233.1,142.5,233.1,142.5z"/>
	<rect x="139.4" y="53.2" class="st2" width="57.6" height="4"/>
	<g>
		<circle id="XMLID_195_" class="st5" cx="210" cy="113.3" r="10.6"/>
		<path class="st6" d="M205.5,120.6c-0.7,0.3-1.4,0.7-2,1.1c1.8,1.4,4.1,2.3,6.6,2.3c2.3,0,4.4-0.7,6.2-2c-0.8-0.8-1.4-1.1-2-1.4
			c-1.1-0.5-1.8-1.5-1.8-2.7c0-0.8,0.4-1.7,1-2.2c1.3-1.1,2.1-2.7,2-4.5c-0.1-2.9-2.4-5.2-5.3-5.3c-3.2-0.1-5.8,2.4-5.8,5.5
			c0,1.7,0.8,3.2,2,4.2c0.7,0.6,1,1.4,1,2.2v0C207.3,119.1,206.6,120.1,205.5,120.6z"/>
	</g>
	<path class="st5" d="M153,123.7h-8.5c-2.9,0-5.3-2.4-5.3-5.3V110c0-2.9,2.4-5.3,5.3-5.3h8.5c2.9,0,5.3,2.4,5.3,5.3v8.5
		C158.3,121.4,155.9,123.7,153,123.7z"/>
	<linearGradient id="SVGID_2_" gradientUnits="userSpaceOnUse" x1="157.7428" y1="123.9965" x2="157.7428" y2="51.3754">
		<stop  offset="0" style="stop-color:#0C1F42;stop-opacity:0"/>
		<stop  offset="1" style="stop-color:#0C1F42"/>
	</linearGradient>
	<path class="st7" d="M159.1,102.8v-5.4h-2.8v5.4c-3.6,1.4-6.3,8.1-6.3,16.1c0,9,3.4,16.4,7.7,16.4s7.7-7.3,7.7-16.4
		C165.4,110.9,162.7,104.2,159.1,102.8z"/>
	<rect x="263.9" y="53.2" class="st8" width="81.7" height="4"/>
	<rect x="263.9" y="68" class="st8" width="60.3" height="4"/>
	<linearGradient id="SVGID_3_" gradientUnits="userSpaceOnUse" x1="321.0797" y1="43.2682" x2="321.0797" y2="-29.353">
		<stop  offset="0" style="stop-color:#0C1F42;stop-opacity:0"/>
		<stop  offset="1" style="stop-color:#0C1F42"/>
	</linearGradient>
	<path class="st9" d="M322.5,22.1v-5.4h-2.8v5.4c-3.6,1.4-6.3,8.1-6.3,16.1c0,9,3.4,16.4,7.7,16.4s7.7-7.3,7.7-16.4
		C328.7,30.1,326,23.5,322.5,22.1z"/>
	<path class="st1" d="M484.2,142.5h-108c0,0-2.7-19.6-2.7-53.9s0-54.2,0-54.2h108c0,0,0,20.1,0,55.1S484.2,142.5,484.2,142.5z"/>
	<rect x="389.1" y="53.9" class="st2" width="81.7" height="4"/>
	<rect x="389.1" y="68.7" class="st2" width="81.7" height="4"/>
	<rect x="389.1" y="83.5" class="st2" width="30.4" height="4"/>
	<linearGradient id="SVGID_4_" gradientUnits="userSpaceOnUse" x1="433.0843" y1="77.0181" x2="433.0843" y2="4.3969">
		<stop  offset="0" style="stop-color:#0C1F42;stop-opacity:0"/>
		<stop  offset="1" style="stop-color:#0C1F42"/>
	</linearGradient>
	<path class="st10" d="M434.5,55.8v-5.4h-2.8v5.4c-3.6,1.4-6.3,8.1-6.3,16.1c0,9,3.4,16.4,7.7,16.4s7.7-7.3,7.7-16.4
		C440.7,63.9,438,57.2,434.5,55.8z"/>
	<path class="st11" d="M63.2,178.2l92.5-82.8c0.5-0.4,1.1-0.7,1.7-0.6l0,0c0.5,0,1,0.1,1.4,0.4l58.9,38.2c0.5,0.3,1.1,0.4,1.6,0.4
		l0,0c0.6-0.1,1.1-0.4,1.4-0.8l98.2-117c0,0,0.7-1.7,2.7-1.3c0,0,0.7,0.1,1.2,0.9"/>
	<g>
		<path class="st12" d="M229.7,51.3c2.1,0.4,3.8,2.9,3.5,4.7c-0.2,1.1-1.1,1.2-1.4,2.4c-0.6,2.1,1.4,3.4,1.3,5
			c-0.3,3.6-10.7,8-14.9,4.3c-1.2-1.1-2.1-3.1-1.8-4.9c0.4-1.8,2-3.4,3.4-4.1c1-0.5,1.7-0.6,2.6-1.4c0.7-0.7,1-1.5,1.2-2
			C224.6,53.4,227.3,50.9,229.7,51.3z"/>
		<path class="st13" d="M229.7,62.1c3.5,2,7,4,10.4,6.1c0.1,0.1,0.3,0.1,0.4,0.1c4-0.8,8.1-1.6,12.1-2.3c0.4-0.1,0.8,0.3,0.7,0.7
			l-0.5,4.1c0,0.2-0.2,0.4-0.4,0.5c-1.7,0.5-3.6,1-5.7,1.4c-2.8,0.5-5.3,0.7-7.5,0.8c-0.1,0-0.1,0-0.2,0c-1.8-0.6-3.9-1.3-6.1-2.4
			c-3-1.5-5.4-3.2-7.3-4.7c-0.3-0.2-0.3-0.7,0-0.9c1.1-1,2.1-2.1,3.2-3.1C229.2,62,229.5,61.9,229.7,62.1z"/>
		<path class="st14" d="M218.3,129.1c-0.2,0-0.5,0-0.7,0.1c-0.3,0.3-0.2,0.9-0.1,1.6c0.1,0.5,0.1,1.3,0,2.3c2.9,0,5.8,0,8.7,0
			c-0.2-0.1-0.6-0.4-1-0.6c-1.5-0.9-2-1.1-2.7-1.5c-0.6-0.4-1.3-1-2.1-2C219.7,129.1,219,129.1,218.3,129.1z"/>
		<path class="st14" d="M254,121.4c0.2,0.5,0.3,1.1,0.6,1.7c0.3,0.8,0.6,1.5,0.9,2.1c0.2,0.3,0.6,0.4,0.9,0.2
			c2.2-1.4,4.4-2.8,6.7-4.2c0-0.2,0-0.5-0.1-0.7c-0.3-0.3-0.9-0.1-1.2,0c-1.4,0.4-3,0.7-4.1,0.5c-0.7-0.1-1.3-0.5-1.8-0.9
			C255.2,120.6,254.6,121,254,121.4z"/>
		<path class="st12" d="M219.9,77.6c0.2-0.2,1.9-2.4,4.6-2.5c2.4-0.1,4.6,1.5,10.3,9.3c2.8,3.8,5.1,7.2,8.8,13.1
			c3.3,5.1,5,7.9,7.5,12.1c2.5,4.3,4.6,8.1,6.3,11.1c-2.2,1.5-4.4,3-6.6,4.5c-3.7-5.5-9.5-13.8-16.1-22.3
			c-5.3-6.8-7.9-10.2-9.5-11.4c-2.5-1.9-4.9-3.2-6-6.3C219,84.6,217.6,80.6,219.9,77.6z"/>
		<path class="st12" d="M222.3,74.9c1.8-0.6,3.9,0.2,5.2,1.4c1,0.9,2.7,3.1,1.3,14.5c-0.2,1.8-0.6,4.5-2.8,15.3
			c-1.2,6-1.5,7.1-2.3,10.9c-1.1,5.5-1.9,10-2.3,12.9c-2.4-0.1-4.9-0.2-7.3-0.3c0.3-3.8,2.2-32.8,4.3-46.5
			C218.6,80.6,219.4,75.9,222.3,74.9z"/>
		<path class="st13" d="M215.8,90.8c-0.1,1,0.6,1.9,1.7,2c2.7,0.2,5.9,0.3,9.4,0.1c4-0.3,7.6-1,10.5-1.8c1.2-0.3,1.8-1.8,1-2.8
			c-1.8-2.5-3.1-4.8-4.1-6.7c0,0-3.7-7.2-2.4-9.3c0.7-1,0.7-1.5,0.9-2.3c0.1-0.2,0.1-0.5,0.1-0.8c0-0.6-0.1-0.8-0.8-3.5
			c-0.6-2-0.6-2.1-0.8-2.4c-0.2-0.3-1-1.3-4.2-1.5c-2.9-0.1-5.5,0.6-7.5,1.5c-0.7,0.3-1.1,1-1.1,1.8c0.1,1.9,0.5,3.3,0.8,4.4
			c0.6,1.9,1.2,2.8,1.1,4.5c-0.1,1.8-1.1,3.1-1.4,3.5C217.9,79.3,216.6,82.9,215.8,90.8z"/>
		<path id="XMLID_194_" class="st15" d="M231.4,56.9c0,0.1-0.1,0.1-0.3,0.3c-0.1,0.1-0.3,0.2-0.4,0.3c0,0.3,0,0.5,0,0.8
			c0,0.5-0.1,1-0.2,1.5c-0.4,0.1-0.9,0.2-1.5,0.3c-0.7,0.1-1.6,0.2-2.8-0.1c-0.5-0.1-1.2-0.3-1.8-0.7c-1.3-0.9-2.4-3-1.5-5
			c0.9-2.1,3.6-3,5.3-2.2c0.2,0.1,1.3,0.6,1.8,1.7c0,0.1,0.1,0.2,0.1,0.2c0.1,0.2,0.1,0.4,0.1,0.5c0.1,0.7,0.2,1.1,0.2,1.2
			c0.2,0.5,0.6,0.9,0.6,0.9C231.2,56.6,231.4,56.7,231.4,56.9z"/>
		<path class="st15" d="M224.3,57.7c0.4,0.9,0.6,1.6,0.6,2.1c0.2,1.3-0.2,1.7-0.3,1.8c-0.1,0.1-0.1,0.1-0.2,0.2
			c-0.2,0-0.4,0-0.6,0.1c-0.2,0-0.4,0.1-0.6,0.1c0.3,0.7,0.9,1.8,2.1,2.8c0.2,0.2,3.1,2.3,4.4,1.1c0.7-0.7,1.5-2.8,0.1-3.7
			c-0.5-0.3-1.2-0.3-1.4-0.9c-0.2-0.5-0.1-1,0.2-1.4C227.3,59.2,225.8,58.5,224.3,57.7z"/>
		<path class="st12" d="M228.5,56.7c-1.5,1.6-0.6,2.9-2,4.2c-0.7,0.6-1.4,0.9-1.9,1c0-0.6-0.1-1.6-0.6-2.5c-0.7-1.4-1.5-1.4-1.9-2.4
			c-0.5-1.5,0.7-3.5,1.9-4.6c1.8-1.5,3.9-1.3,4.3-1.3c0.5,0,2.4,0.2,3.1,1.5c0.1,0.1,0.5,0.9,0.2,1.5c-0.1,0.3-0.4,0.4-0.5,0.4
			C230.2,54.9,229.1,56,228.5,56.7z"/>
		<path class="st16" d="M251.7,58.5l2.4,1.2l8-15.9l0,0c0.2-0.3,1.8-4.8,1.2-5.1c-0.7-0.3-3.4,3.6-3.6,3.9l0,0L251.7,58.5z"/>
		
			<ellipse transform="matrix(0.4505 -0.8928 0.8928 0.4505 80.7127 258.7617)" class="st17" cx="250.6" cy="63.8" rx="5.8" ry="12.7"/>
		<polygon class="st17" points="243.8,60 257.7,67 246.6,84.9 236.1,79.6 		"/>
		<ellipse transform="matrix(0.4505 -0.8928 0.8928 0.4505 61.7993 260.3614)" class="st18" cx="242.4" cy="80" rx="4.5" ry="9.7"/>
		<polygon class="st15" points="236.6,82.2 240,82.5 242.2,80.6 242.2,79 239.5,80.3 239.5,79.2 239,79.2 238.4,80.3 		"/>
		
			<linearGradient id="SVGID_5_" gradientUnits="userSpaceOnUse" x1="5574.2109" y1="83.6726" x2="5574.2109" y2="63.6161" gradientTransform="matrix(-1 0 0 1 5802.8862 0)">
			<stop  offset="0" style="stop-color:#4B7BBE"/>
			<stop  offset="0.7731" style="stop-color:#325BA9"/>
		</linearGradient>
		<path class="st19" d="M224.1,63.6c1.4,4,2.9,8,4.3,12c3.3,1.6,6.7,3.1,10,4.7c-0.8,2-0.5,1.3-1.2,3.3c-1.8-0.5-3.8-1.1-5.9-1.8
			c-2.6-0.9-4.9-2-7-3c-1-1.6-2.1-3.6-3.1-5.8c-1.1-2.5-1.8-4.9-2.3-6.9c-0.3-1.1,0.5-2.1,1.6-2.2L224.1,63.6z"/>
	</g>
	<g>
		<path class="st16" d="M347,18.1v-2.9H321l0,0c-0.8,0-1.3,0.7-1.3,1.5c0,0.8,0.6,1.4,1.4,1.4l0,0L347,18.1z"/>
		<ellipse class="st20" cx="336.5" cy="16.7" rx="12.5" ry="12.4"/>
		<circle class="st21" cx="337.2" cy="16.6" r="7.3"/>
		<rect x="337.2" y="9.3" class="st21" width="9.5" height="14.6"/>
		<ellipse class="st8" cx="344.9" cy="16.7" rx="9.6" ry="9.5"/>
	</g>
	<g>
		<linearGradient id="SVGID_6_" gradientUnits="userSpaceOnUse" x1="87.3326" y1="65.2523" x2="87.3326" y2="-7.3689">
			<stop  offset="0" style="stop-color:#0C1F42;stop-opacity:0"/>
			<stop  offset="1" style="stop-color:#0C1F42"/>
		</linearGradient>
		<path class="st22" d="M88.7,44.1v-5.4h-2.8v5.4c-3.6,1.4-6.3,8.1-6.3,16.1c0,9,3.4,16.4,7.7,16.4c4.2,0,7.7-7.3,7.7-16.4
			C95,52.1,92.3,45.5,88.7,44.1z"/>
		<g>
			<path class="st16" d="M113.2,40v-2.9H87.2l0,0c-0.8,0-1.3,0.7-1.3,1.5c0,0.8,0.6,1.4,1.4,1.4l0,0L113.2,40z"/>
			<ellipse class="st23" cx="102.7" cy="38.6" rx="12.5" ry="12.4"/>
			<circle class="st24" cx="103.4" cy="38.6" r="7.3"/>
			<rect x="103.4" y="31.3" class="st24" width="9.5" height="14.6"/>
			<ellipse class="st25" cx="111.1" cy="38.6" rx="9.6" ry="9.5"/>
		</g>
	</g>
	<g>
		<path class="st16" d="M458.9,51.7v-2.9H433l0,0c-0.8,0-1.3,0.7-1.3,1.5s0.6,1.4,1.4,1.4l0,0L458.9,51.7z"/>
		<ellipse class="st23" cx="448.5" cy="50.3" rx="12.5" ry="12.4"/>
		<circle class="st24" cx="449.2" cy="50.3" r="7.3"/>
		<rect x="449.2" y="43" class="st24" width="9.5" height="14.6"/>
		<ellipse class="st25" cx="456.9" cy="50.3" rx="9.6" ry="9.5"/>
	</g>
	<g>
		<path class="st16" d="M183.4,98.3v-2.9h-25.9l0,0c-0.8,0-1.3,0.7-1.3,1.5s0.6,1.4,1.4,1.4l0,0L183.4,98.3z"/>
		<ellipse class="st20" cx="173" cy="96.9" rx="12.5" ry="12.4"/>
		<circle class="st21" cx="173.7" cy="96.8" r="7.3"/>
		<rect x="173.7" y="89.5" class="st21" width="9.5" height="14.6"/>
		<ellipse class="st8" cx="181.4" cy="96.9" rx="9.6" ry="9.5"/>
	</g>
	<g>
		<path class="st16" d="M90.1,179v-2.9H64.2l0,0c-0.8,0-1.3,0.7-1.3,1.5s0.6,1.4,1.4,1.4l0,0L90.1,179z"/>
		<ellipse class="st20" cx="79.7" cy="177.6" rx="12.5" ry="12.4"/>
		<circle class="st21" cx="80.4" cy="177.6" r="7.3"/>
		<rect x="80.4" y="170.3" class="st21" width="9.5" height="14.6"/>
		<ellipse class="st8" cx="88.1" cy="177.6" rx="9.6" ry="9.5"/>
	</g>
	<g>
		<line class="st26" x1="349.3" y1="265.6" x2="315.7" y2="162.7"/>
		<line class="st26" x1="318.7" y1="172" x2="340.2" y2="172"/>
		<line class="st26" x1="321.8" y1="181.3" x2="343.2" y2="181.3"/>
		<line class="st26" x1="324.8" y1="190.6" x2="346.3" y2="190.6"/>
		<line class="st26" x1="327.9" y1="199.9" x2="349.3" y2="199.9"/>
		<line class="st26" x1="330.9" y1="209.2" x2="352.4" y2="209.2"/>
		<line class="st26" x1="334" y1="218.5" x2="355.4" y2="218.5"/>
		<line class="st26" x1="337" y1="227.8" x2="358.5" y2="227.8"/>
		<line class="st26" x1="340.1" y1="237.1" x2="361.5" y2="237.1"/>
		<line class="st26" x1="343.1" y1="246.4" x2="364.6" y2="246.4"/>
		<line class="st26" x1="346.2" y1="255.7" x2="367.6" y2="255.7"/>
		<line class="st26" x1="370.5" y1="264.5" x2="337.1" y2="162.7"/>
	</g>
	<path class="st11" d="M407.7,210.4c-4.5,0.4-9.1-1.7-11.9-5.3c-2.7-3.5-3.4-8-4.4-12.1c-0.5-2.1-1-4.3-1.9-6.3
		c-0.8-1.7-2.6-2.8-2.9-4.8c-0.2-1.6-0.8-3.2-0.8-3.2c-3,0.9,47.9-17.1,45.1-128.8c0,0,0.2-0.7,0.7-1.2c0.6-0.7,2-1,2,0.1"/>
	<path class="st27" d="M388.5,175c-1.3,0.3-2.3,1.5-3.1,2.6c-2.7,3.9-4.6,8.6-5.5,13.5c-0.4,2.3-0.6,4.6-0.7,6.9
		c-0.2,3.4-0.2,6.9,0.9,10c1.1,3.1,3.5,5.9,6.4,6.2c0.5,0.1,1.1,0,1.6-0.2c0.8-0.3,1.4-1,1.9-1.8c2.1-3.1,2.6-7.3,2.7-11.3
		c0.1-5.9-0.5-11.9-1.8-17.6c-0.4-1.7-0.9-3.5-2-4.7c-0.3-0.4-0.7-0.7-1.2-0.7c-0.9,0-1.5,1-2,2c-3.7,8.2-6.5,17.5-5,26.6
		c0.7,4.2,2.6,8.6,6,10.3c0.6,0.3,1.2,0.5,1.8,0.4c0.7-0.1,1.3-0.6,1.8-1.1c2.6-2.8,3.1-7.3,3.2-11.4c0.1-6.6-0.6-13.2-2.2-19.5
		c-0.4-1.6-0.9-3.3-1.7-4.7c-0.3-0.5-0.8-1.1-1.3-1c-0.3,0.1-0.6,0.4-0.8,0.6c-3.4,4.5-4.7,10.7-5.4,16.6c-0.6,4.8-0.9,9.6-0.9,14.4
		c0,2.1,0,4.2,0.7,6.2c0.4,1.2,1.1,2.4,2.2,2.7c1.5,0.4,2.8-1.1,3.6-2.6c1.4-2.6,2-5.7,2.3-8.7c0.5-4.3,0.5-8.6,0.5-12.8
		c0-4.3,0-8.7-0.8-12.9c-0.4-2.2-1.3-4.7-3.2-5.4"/>
	
		<linearGradient id="SVGID_7_" gradientUnits="userSpaceOnUse" x1="6176.0151" y1="10.314" x2="6221.9409" y2="10.314" gradientTransform="matrix(-1 0 0 -1 6603.978 276.644)">
		<stop  offset="0" style="stop-color:#E0E2E5;stop-opacity:0"/>
		<stop  offset="5.000000e-02" style="stop-color:#DDE0E3;stop-opacity:7.000000e-02"/>
		<stop  offset="0.31" style="stop-color:#D3D7DC;stop-opacity:0.4"/>
		<stop  offset="0.54" style="stop-color:#CDD1D7;stop-opacity:0.66"/>
		<stop  offset="0.74" style="stop-color:#C6C9D1;stop-opacity:0.84"/>
		<stop  offset="0.9" style="stop-color:#C3C7D0;stop-opacity:0.96"/>
		<stop  offset="1" style="stop-color:#C2C6CF"/>
	</linearGradient>
	<ellipse class="st28" cx="405" cy="266.3" rx="23" ry="4.9"/>
	<path class="st29" d="M385.7,177.9c-0.3-0.5-0.4-1.1-0.4-1.8c0-0.7,0-1.4,0.4-1.7c0.4-0.2,0.8-0.4,1.2-0.6c0.1,0,1.1,0.1,1.2,0.1
		c0.5-0.1,1.9,4.6,0.3,5.7c-0.5,0.3-1,0.4-1.6,0.3L385.7,177.9z"/>
	<path class="st23" d="M415.5,197.7l-2.3,0.6l1.6,11.8l-9.4,10.2l2.5,1.7l9.7-9.1c0.3-0.3,0.5-0.6,0.6-0.9c0.6-1.1,0.4-2.2,0.3-3.7
		c-0.1-1.4,0-0.6-0.1-3.4c0-1.9-0.2-3.8-0.6-5.7c-0.1-0.4-0.2-0.7-0.3-1L415.5,197.7z"/>
	<path class="st29" d="M415.2,217.5c0.5,3.3-1.4,13.5-1.9,20.6c-0.3,4.7,0.2,4.3-0.2,10.1c-0.3,4.3-0.8,8.6-1.5,12.9
		c-0.4,0.5-1,0.8-1.6,0.9c-0.4,0.2-0.8,0.2-1.1,0.1c-0.2-0.1-0.5-0.2-0.6-0.3c-0.2-6.5-0.3-13.8-0.3-20.4c0-5.5,0-10.9,0-16.3
		c-1.1,2.3-2.3,4.5-3.5,6.7c-1.5,2.9-3,5.8-4.5,8.6c0.2,1.2,0.3,2.4,0.2,3.6c-0.4,3.9-1.2,7.8-2.4,11.5c0,0-2.3,6.9-3.6,6.8
		c-0.4-0.1-0.7-0.2-1-0.5c-0.3-0.3-0.5-0.6-0.6-1c0.7-5.4,1.9-13.4,2.8-19c0.4-2.8,0.9-5.6,1.4-8.4c0,0,0.3-0.5,3.7-14.8
		c0.4-1.7,1.1-3.4,2-4.9c0.3-0.5,0.6-0.9,1-1.4c5.1-0.4,7-0.6,8-0.8c0.2,0,0.5-0.1,0.9-0.1c0.4-0.1,0.8-0.2,1.1-0.3
		c0.4,0.8,0.7,1.6,0.9,2.5C414.7,214.9,415.2,217,415.2,217.5z"/>
	<path class="st30" d="M409.4,187.3l3.6,6.2l1.3-0.9c1.5-0.9,2.6-2.2,3.1-3.9c0.5-1.4,0.3-3-0.5-4.3c-0.6-0.8-1.4-1.4-2.4-1.6
		c-1.2-0.4-1.5,0-3.8-0.1c-1.6-0.1-2.3-0.4-2.6,0.1c-0.3,0.4,0.2,1.3,0.6,1.9L409.4,187.3z"/>
	<path class="st31" d="M413.1,191.7c-0.2,0.1-0.8,0.2-1.2-0.1c-0.2-0.3-0.3-0.5-0.3-0.9c-0.1-0.3-0.2-0.6-0.2-0.7l-3,0.1
		c0.4,1.8,0.2,3.8-0.5,5.5h4.9L413.1,191.7z"/>
	<path class="st32" d="M413.9,238.1c-2.2,0.3-4.5,0.2-6.7-0.3c-0.1-2.1-0.1-4.3-0.1-6.6c0.1-1.4,0.1-2.8,0.3-4.1l-2.5,4.6
		c-1.1,2.1-2.2,4.2-3.3,6.3c-2.3,0.1-4.6-0.2-6.2-1.5c0.2-1.2,0.4-2.3,0.6-3.5v-0.1v0c0.1-0.2,0.6-1.9,3.7-14.7
		c0.4-1.8,1.1-3.5,2.1-5.1c0.3-0.5,0.6-1,1-1.4l0.2-0.2h0.2c5.2-0.4,7.1-0.6,8-0.8h0.2c0.2,0,0.4-0.1,0.7-0.1
		c0.4-0.1,0.7-0.2,1.1-0.3l0.4-0.1l0.2,0.4c0.2,0.4,0.4,0.9,0.6,1.4c0.2,0.4,0.3,0.8,0.4,1.2c0.3,1.2,0.8,3.3,0.9,3.9
		c0.3,2.1-0.2,6.6-0.9,11.3c-0.4,3.2-0.8,6.5-1,9.4C413.9,237.9,413.9,238,413.9,238.1L413.9,238.1z"/>
	<path class="st23" d="M409.6,224.8c-2.1,2-3.3,4.4-4.6,7c-1.1,2.1-2.2,4.2-3.3,6.3c-2.3,0.1-4.6-0.2-6.2-1.5
		c-0.5-0.4,1.2-5.7,1.3-6.3c0.6-2.4,1.2-4.9,1.8-7.3c0.9-3.2,1.5-7,3.3-9.8c0.3-0.5,0.6-1,1-1.4l0.2-0.2h0.2c5.2-0.4,7.1-0.6,8-0.8
		h0.2c0.2,0,0.4-0.1,0.7-0.1c0.4-0.1,0.7-0.2,1.1-0.3l0.4-0.1l0.2,0.4c0.2,0.4,0.4,0.9,0.6,1.4c0.1,0.4,0.3,0.8,0.4,1.2
		c0.4,1.4,0.5,2.8,0.3,4.3c-0.2,1.2-0.8,2.4-1.6,3.4C412.4,222.3,411,223.6,409.6,224.8z"/>
	<path class="st29" d="M409.8,185.7c0.8,0.9,0.7,1.5,1.4,2.3c0.7,0.7,1.1,0.6,1.3,1.2c0.2,0.6-0.2,0.9,0.1,1.5
		c0.2,0.4,0.4,0.4,0.6,0.8c0.2,0.4,0.2,0.9-0.1,1.3c-0.2,0.3-0.8,0.2-1.9,0.2c-2.5-0.1-2.6-0.1-2.9-0.2c-0.7-0.3-1.4-0.6-2-1.1
		l0.2-3.2l-0.5-0.9l2.1-1.3l0.7-1.6C409.1,185,409.5,185.3,409.8,185.7z"/>
	
		<linearGradient id="SVGID_8_" gradientUnits="userSpaceOnUse" x1="6209.9678" y1="106.6317" x2="6190.1045" y2="52.4221" gradientTransform="matrix(-1 0 0 -1 6603.978 276.644)">
		<stop  offset="0" style="stop-color:#FEE381"/>
		<stop  offset="0.3" style="stop-color:#FFCF50"/>
		<stop  offset="0.61" style="stop-color:#FDBA26"/>
		<stop  offset="0.86" style="stop-color:#FCAF17"/>
		<stop  offset="1" style="stop-color:#FBAA19"/>
	</linearGradient>
	<path class="st33" d="M388.1,188.4c-0.9-3.2-1.6-6.3-2.2-9.1l3.5-0.9l4.4,13.3c2.1,0.9,4.4,1.5,6.6,1.9c1.2,0.2,1,0.1,7.3,0.7
		c0,0,4.6,0.5,7.1,1.7c0.6,0.3,1.2,0.6,1.2,0.6l0.5,0.3l0,0c1.2,0.8,1.3,2.6,1.3,3.8c0,3.3-1.1,6.9-1.5,9.6c-0.4,2.5-0.4,5,0,7.5
		c-1.8,0.4-3.6,0.6-5.5,0.6c-3.5,0-7-0.6-10.3-1.9c0.8-3.6,1.4-7.3,1.8-10.9c0.1-1,0.1-0.6,0.1-2c0-0.9,0.1-1.7,0.1-2.6
		c-4.3-1.1-8.4-2.8-12.1-5.2C389.6,193.4,388.7,191,388.1,188.4z"/>
	<path class="st34" d="M411.9,263.3c-0.2-1.1-0.2-2.2-0.1-3.3c-1.2-0.2-2.4-0.2-3.6,0c0,0.4,0,0.9,0,1.3c0,0.7-0.1,1.4-0.1,2.1
		L411.9,263.3L411.9,263.3z"/>
	<path class="st34" d="M396,261.3c0.1-0.7,0.3-1.3,0.5-1.9l-1.9,0.2l-2.1,0.2c0,0.7-0.7,2.7-0.7,3.4h3.8
		C395.8,262.7,395.9,262,396,261.3z"/>
	<path id="_Clipping_Path__2_" class="st30" d="M411.9,263c0.5,1.1,0.7,2.3,0.6,3.5h-7.2V266c0-0.2,0.1-0.4,0.3-0.5
		c0.5-0.2,1.1-0.5,1.5-0.9c1.2-1,0.7-2.6,1.2-2.4c0.3,0.1,0.5,0.7,0.6,0.7l0,0L411.9,263z"/>
	<path id="_Clipping_Path_2_2_" class="st30" d="M395.7,263c0.5,1.1,0.7,2.3,0.6,3.5h-9.6V266c0-0.2,0.1-0.4,0.4-0.5
		c0.7-0.2,1.4-0.5,2-0.9c1.6-1,2.5-2.6,3-2.4c0.3,0.1,0.5,0.7,0.6,0.7l0,0L395.7,263z"/>
	<path class="st30" d="M407.4,188.7c1.3,0.4,1.7,1.1,2.3,1c0.6-0.1,1-0.9,1-1.1c0.2-0.6,0.1-1.3-0.2-1.9l1.7,1
		c0,0.2,0.1,4.9-1.4,5.4c-1,0.1-2.1,0-3.1-0.1h-0.2c-0.6-0.1-1.1-0.4-1.4-0.9c-0.2-0.3-0.3-0.7-0.2-1.1c0.1-0.3,0.2-0.6,0.5-0.8
		c0,0.1,0,0.3,0.1,0.4c0.2,0.4,0.6,0.6,0.9,0.5c0.1,0,0.1-0.1,0.2-0.8c0.1-0.3,0.1-0.5,0.1-0.6c-0.5,0-1-0.1-1.4-0.3
		c-0.1-0.3,0-0.7,0.3-0.9C406.7,188.6,407,188.6,407.4,188.7z"/>
	<g>
		<ellipse class="st35" cx="187" cy="260.9" rx="45.2" ry="7.7"/>
		<g>
			<polygon id="XMLID_192_" class="st36" points="140.8,102.3 150.8,126.3 133.7,127.3 			"/>
			<path class="st13" d="M150.4,266.1L150.4,266.1c4.7-0.3,8.4-4.3,8.1-9.1l-0.8-14.3l-17.2,1l0.8,14.3
				C141.6,262.7,145.7,266.4,150.4,266.1z"/>
			
				<rect x="137.1" y="126.7" transform="matrix(-0.9983 5.812226e-02 -5.812226e-02 -0.9983 301.8214 361.1638)" class="st23" width="17.2" height="116.6"/>
			<polygon class="st37" points="138.3,111.2 140.8,102.3 144.4,110.9 			"/>
			
				<linearGradient id="SVGID_9_" gradientUnits="userSpaceOnUse" x1="3469.5776" y1="1056.9652" x2="3469.5776" y2="941.5023" gradientTransform="matrix(-0.985 -0.1727 -0.1727 0.985 3739.9563 -200.3875)">
				<stop  offset="0" style="stop-color:#F89925"/>
				<stop  offset="1" style="stop-color:#FFC50F"/>
			</linearGradient>
			<polygon class="st38" points="149.1,243.2 157.7,242.7 150.8,126.3 142.2,126.8 			"/>
		</g>
		<path class="st15" d="M170.3,190.6c-4,1-7,0.7-8.9,0.2c-1.4-0.3-3.3-1-4.4,0c-0.6,0.5-1,1.3-0.9,2.2c0.1,0.9,0.8,1.4,1.1,1.7
			c2.4,1.9,9.7,3.9,10.5,4.1c1-1.1,2-2.1,3-3.2C170.6,194,170.4,192.3,170.3,190.6z"/>
		
			<linearGradient id="SVGID_10_" gradientUnits="userSpaceOnUse" x1="2829.4365" y1="250.7373" x2="2829.4365" y2="207.838" gradientTransform="matrix(-1 0 0 1 3003.7664 0)">
			<stop  offset="0" style="stop-color:#FFC50F"/>
			<stop  offset="0.6633" style="stop-color:#FBAA19"/>
		</linearGradient>
		<path class="st39" d="M166.5,233c0-1.7-0.1-3.2-0.1-4.4c-0.2-10.5-0.2-13.2,1-16.3c0.4-1,1.1-2.6,2.3-4.5
			c4.3,0.6,8.6,1.2,12.9,1.8c-2.1,4.3-4.3,8.6-6.4,12.9c-1.5,7.6-2.4,12.6-2.8,15.9c-0.1,0.6-0.4,2.3-0.7,4.9
			c-0.5,3.5-1,5.5-1.3,7.4c-0.7,0-1.5,0.1-2.3,0.1c-1,0-1.9,0-2.8,0c0.1-1.3,0.3-2.4,0.2-4.9c-0.1-2.6-0.4-3.7-0.5-6
			C166,238.2,166,235.9,166.5,233z"/>
		<path class="st15" d="M171.7,259.1c-1.5,0.3-2.7-1.9-4.2-1.5c0-0.9,0.1-1.9,0-3c0-1.1-0.2-3.1-0.2-4c1.2,0,2.6,0.1,3.7,0
			c0,0.1-0.2,1-0.2,1.1c-0.2,1.7-0.5,3.7,0.4,5.1c0.2,0.3,0.6,0.8,1.5,1.3C172.4,258.7,172.1,259,171.7,259.1z"/>
		<path class="st40" d="M171.7,259.1c0.4-0.1,0.7-0.4,1-0.8c0.3,0.2,0.7,0.3,1.2,0.5c0,0.1,0,0.3-0.1,0.5c-0.1,0.2-0.2,0.3-0.3,0.4
			c-0.8,0.4-1.4,0.6-1.9,0.8c-2.2,0.8-3,0.8-3.4,0.6c-0.3-0.1-0.6-0.2-0.7-0.3c0-0.5,0-1.1,0-1.7c0-0.5,0-0.9,0.1-1.4
			C168.9,257.2,170.1,259.4,171.7,259.1z"/>
		<path class="st40" d="M188.4,259.5c1.1,0.1,1.9-1.3,2.9-1.3c1.6,2,3.6,3.1,4.9,3.7c0,0.3,0.1,0.6,0.1,1c-1.9-0.1-3.9-0.1-5.9-0.2
			c-1.6-0.1-3.1-0.2-4.6-0.3c-0.1-1.5-0.1-3.1-0.2-4.6c0-0.2,0.1-0.4,0.1-0.6C186.4,258.4,187.2,259.5,188.4,259.5z"/>
		<path class="st15" d="M183.3,250.4c1.7,0.2,3.4,0.3,5,0.3c0.4,2.7,1,5.2,2.9,7.5c0,0,0,0,0,0c-1,0-1.8,1.4-2.9,1.3
			c-1.2,0-2-1.1-2.6-2.3c0.1-0.6,0.3-1.2,0.4-1.7C185.3,254.3,184.2,252.5,183.3,250.4z"/>
		
			<linearGradient id="SVGID_11_" gradientUnits="userSpaceOnUse" x1="2824.7039" y1="250.711" x2="2824.7039" y2="207.3733" gradientTransform="matrix(-1 0 0 1 3003.7664 0)">
			<stop  offset="0" style="stop-color:#FFC50F"/>
			<stop  offset="1" style="stop-color:#FBAA19"/>
		</linearGradient>
		<path class="st41" d="M182.3,207.6c0.4,1.2,1,3,1.6,5.3c1.5,5.9,1.2,8,2.5,20.1c0.1,0.6,0.7,5.3,1.6,14.7c0.1,1,0.2,2,0.3,3
			c-0.8,0-1.7,0-2.5-0.1c-1.6-0.1-3.1-0.2-4.6-0.3c-0.3-3.3-0.5-6.5-0.8-9.9c-0.2-1.8-0.3-3.6-0.5-5.4c-0.7-1.7-1.7-4.2-3.2-7.3
			c-2.3-4.9-3.5-6.3-4.5-9.3c-0.9-2.5-1.9-6-2.4-10.6c1.9-0.2,4.1-0.4,6.4-0.5C178.4,207.3,180.4,207.4,182.3,207.6z"/>
		<path class="st42" d="M187.1,248.3"/>
		<path class="st15" d="M193.1,204.6c-1.3,2.2-2.9,4.5-4.7,6.8c-0.8,1.1-1.7,2.1-2.5,3.1c-0.4-0.4-0.8-0.9-1.2-1.3
			c1.2-2.9,2.1-5.3,2.7-7c0.7-2.1,1.3-3.9,2.4-4c0.7,0,1.4,0.6,2.1,1.1C192.4,203.8,192.8,204.2,193.1,204.6z"/>
		<path class="st23" d="M174.7,213.1c-2.9,0-5.4-0.3-7.3-0.8c0.1-0.7,0.4-1.7,1-2.8c0.4-0.7,0.9-1.3,1.3-1.7c-0.3-2.2-0.7-4.3-1-6.5
			c-0.7-1.1-1.8-3-2.2-5.6c-0.2-1.2-0.1-2.3,0-3.2c0.2-0.5,0.5-1,0.7-1.5c5.5-1.5,8.8-0.6,10.2-0.1c0,0,0.1,0,0.1,0
			c0.4,0.2,0.7,0.3,0.8,0.3c0.5,0.2,3.3,1.3,5.1,2c0.4,0.1,1.1,0.5,1.8,1.2c0.1,0.1,0.1,0.1,0.1,0.2c0.8,1,0.7,2.4,0.4,4
			c-0.3,1.5-0.8,2.8-1.6,4.8c-0.4,1-1,2.4-1.8,4c0.4,1.3,0.8,2.7,1.3,4C181.4,212.3,178.4,213,174.7,213.1z"/>
		<path class="st15" d="M187.3,196.1c1.1,1,2.1,2.3,3,3.4c1.4,2,2.3,3.9,2.9,5.3c-0.2,0.5-0.7,1.1-1.3,1.3c-1,0.3-2-0.4-3.5-1.7
			c-1-0.9-2.4-2.1-3.7-3.4C184.8,199,185.8,197.2,187.3,196.1z"/>
		<path class="st23" d="M181.4,194.6c-0.4-1.4-1-1.9-0.8-2.2c0.3-0.4,2,0.2,3.2,0.8c1.2,0.6,2.9,1.6,4.6,3.6
			c-0.5,0.2-1.5,0.9-2.3,2.2c-0.8,1.4-0.8,2.7-0.8,3.2c-1.7-0.8-2.4-1.8-2.7-2.3c-0.1-0.2-0.4-1.2-0.9-3.1
			C181.3,195.7,181.6,195.4,181.4,194.6z"/>
		<path class="st23" d="M164.8,191.3c1.5,0,3.3-0.1,5.5-0.7c0.1,1.7,0.3,3.4,0.4,5c-0.9,1.2-1.7,2.5-2.6,3.7c-0.4,0-0.8,0.1-1.4,0
			c-0.7-0.1-1.3-0.2-1.7-0.4c-0.3-1-0.7-2.5-0.7-4.4C164.4,193.2,164.6,192.1,164.8,191.3z"/>
		<path class="st15" d="M179.8,189.5c0.1-0.9,0.1-1.8,0.2-2.7c0.2-0.1,0.3-0.1,0.5-0.2c-0.3-0.3-0.8-0.7-1.1-1.4
			c-0.7-1.2-0.3-2.1-0.9-3c-0.5-0.8-1.4-1.1-2-1.4c-1.6-0.7-3.5-0.5-4.9,0.6c-1.4,1.1-1.9,3-1.8,4.7c0.2,2.1,2.3,3.1,3.1,3.5
			c1.8,0.9,3.6,0.7,4.4,0.6C178.3,190.1,179.2,189.8,179.8,189.5z"/>
		<path class="st40" d="M177.4,180.3c1,0.8,1.9,2,1.7,2.4c-0.1,0.1-0.2,0.1-0.7,0.2c-0.6,0.1-1.2,0.1-1.6,0.1c0.1,0,1.6,6.4,1.8,7
			c0.4,1.4,0.9,2.7,1.6,3.9c0.2,0.3,0.3,0.6,0.4,1c0,0.2,0,0.5-0.1,0.7c-0.7,1.1-2.6,1.4-3.8,1.5c-1.7,0.3-3.5,0.3-5.3,0.1
			c-1.8-0.2-3.2-0.4-3.7-1.4c-0.6-1.1,0.3-2,0.5-4.7c0.2-2-0.3-1.9-0.2-4c0-1.8,0.1-4.3,1.8-6.2c1.2-1.3,2.7-1.6,3-1.6
			C175,178.7,176.8,179.9,177.4,180.3z"/>
		
			<linearGradient id="SVGID_12_" gradientUnits="userSpaceOnUse" x1="2836.3542" y1="250.0739" x2="2836.3542" y2="250.0739" gradientTransform="matrix(-1 0 0 1 3003.7664 0)">
			<stop  offset="0" style="stop-color:#4169B2"/>
			<stop  offset="1" style="stop-color:#325BA9"/>
		</linearGradient>
		<path class="st43" d="M167.4,250.1"/>
		<path class="st13" d="M184.2,202.8"/>
		<path class="st15" d="M160.1,191.9c0.3-1.7-1.1-4.5-1.9-6.2c-1.1-2.2-2.2-4.6-3-6.9c-0.5,0.1-1.1,0.2-1.5,0.3c-0.2,3,0.4,6,0.9,9
			c0.3,1.9,1.1,6.5,3.8,6.4C159.9,194.6,160,192.7,160.1,191.9z"/>
		<path class="st15" d="M155.3,180.1c0.6-0.4,0.6-1.4,0.4-2c-0.2-0.8-0.8-1.4-1.1-2.1c-0.1-0.3-0.1-1.2-0.6-0.8
			c-0.4,0.3-0.4,1-0.4,1.4c-0.5-0.2-0.9-0.5-1.2-0.9c-0.3-0.3-0.4-0.8-0.7-1.1c-0.5-0.6-0.5,0.8-0.4,1.1c0.1,0.3,0.2,0.6,0.3,0.9
			c0.1,0.2,0,0.3-0.1,0.5c-0.1,0.7,0.3,1.3,0.6,1.9c0.3,0.5,0.6,1,1.2,1.3C153.9,180.5,155,180.7,155.3,180.1z"/>
		<path class="st15" d="M186.4,213.5c-0.5,0.6-0.3,1.2-0.3,1.9c0,0.5-0.2,0.9-0.3,1.4c-0.1,0.3-0.2,0.7-0.5,1
			c-0.4,0.4-1.1,0.8-1.6,1c-0.2,0.1-0.3,0.1-0.5-0.1c-0.2-0.2-0.4-0.5-0.6-0.7c-0.2-0.2-0.4-0.5-0.4-0.7c0-0.4,0.3-0.8,0.5-1.1
			c0.2-0.4,0.4-0.7,0.9-0.4c0-0.1-0.2-0.2-0.3-0.3c-0.1-0.2-0.1-0.3-0.1-0.5c0.1-0.3,0.3-0.7,0.5-0.9c0.4-0.5,0.7-0.9,1.4-0.7"/>
	</g>
	<path class="st11" d="M66.6,175.1c-0.3,0.5-1.2,0.6-1.4,0.6c-3.2-0.6-3.1,3.2-1.6,3.6c1.6,0.3,2.5,11.3,1.1,13.1"/>
	<path class="st11" d="M322.3,18.1c-2.2,1.9-4-1.4-2.7-2.4c1.3-1-2.9-12.1-5-13.3"/>
	<path class="st11" d="M434.4,51.7c-1.1,1.3-3.5,0.1-3.2-1.2c0.4-1.6-6.3-3.7-8.7-3.3"/>
	<g>
		<circle id="XMLID_191_" class="st5" cx="460.1" cy="113.7" r="10.6"/>
		<path class="st6" d="M455.5,120.9c-0.7,0.3-1.4,0.7-2,1.1c1.8,1.4,4.1,2.3,6.6,2.3c2.3,0,4.4-0.7,6.2-2c-0.8-0.8-1.4-1.1-2-1.4
			c-1.1-0.5-1.8-1.5-1.8-2.7c0-0.8,0.4-1.7,1-2.2c1.3-1.1,2.1-2.7,2-4.5c-0.1-2.9-2.4-5.2-5.3-5.3c-3.2-0.1-5.8,2.4-5.8,5.5
			c0,1.7,0.8,3.2,2,4.2c0.7,0.6,1,1.4,1,2.2v0C457.3,119.4,456.6,120.5,455.5,120.9z"/>
	</g>
	<circle id="XMLID_189_" class="st44" cx="334.9" cy="113.1" r="10.6"/>
	<path class="st45" d="M339.1,120.4c-0.9-0.4-1.5-1.1-1.7-2h0c0,0,0-0.4,0-0.4l2.4,0c0.3,0,0.6-0.3,0.6-0.6l0-6.1
		c0-2.5-1.6-4.6-3.9-5.4c0,0,0,0,0,0c0,0-0.1,0-0.1,0c-0.4-0.1-0.9-0.2-1.4-0.3c-3-0.1-5.5,2.1-5.8,5c0,0.3,0,0.5,0,0.6
		c0,0.2,0,4.9,0,5.1c0,0,0,1.1,0,1.1c0,0.3,0.3,0.6,0.6,0.6l2.4,0c0,0,0,0.1,0,0.2c-0.2,0.9-0.8,1.8-1.7,2.1c-0.7,0.3-1.4,0.7-2,1.1
		c1.8,1.4,4.1,2.3,6.6,2.3c2.3,0,4.4-0.7,6.2-2C340.3,121,339.6,120.6,339.1,120.4z"/>
	<circle id="XMLID_151_" class="st5" cx="88" cy="112.8" r="10.6"/>
	<path class="st6" d="M92.2,120c-0.9-0.4-1.5-1.1-1.7-2l0,0c0,0,0-0.4,0-0.4l2.4,0c0.3,0,0.6-0.3,0.6-0.6l0-6.1
		c0-2.5-1.6-4.6-3.9-5.4c0,0,0,0,0,0c0,0-0.1,0-0.1,0c-0.4-0.1-0.9-0.2-1.4-0.3c-3-0.1-5.5,2.1-5.8,5c0,0.3,0,0.5,0,0.6
		c0,0.2,0,4.9,0,5.1c0,0,0,1.1,0,1.1c0,0.3,0.3,0.6,0.6,0.6l2.4,0c0,0,0,0.1,0,0.2c-0.2,0.9-0.8,1.8-1.7,2.1c-0.7,0.3-1.4,0.7-2,1.1
		c1.8,1.4,4.1,2.3,6.6,2.3c2.3,0,4.4-0.7,6.2-2C93.4,120.6,92.8,120.3,92.2,120z"/>
	<rect x="140" y="67.4" class="st2" width="30.4" height="4"/>
</g>
</svg>
