<?xml version="1.0" encoding="utf-8"?>
<!-- Generator: Adobe Illustrator 24.1.2, SVG Export Plug-In . SVG Version: 6.00 Build 0)  -->
<svg version="1.1" id="Layer_1" xmlns="http://www.w3.org/2000/svg" xmlns:xlink="http://www.w3.org/1999/xlink" x="0px" y="0px"
	 viewBox="0 0 600 314" style="enable-background:new 0 0 600 314;" xml:space="preserve">
<style type="text/css">
	.st0{opacity:0.3;fill:#C1C6CF;}
	.st1{fill:none;stroke:#51607A;stroke-width:2.3015;stroke-miterlimit:10;}
	.st2{fill:#048EA7;}
	.st3{fill:none;stroke:#4169B2;stroke-width:1.1602;stroke-miterlimit:10;}
	.st4{fill:url(#SVGID_1_);}
	.st5{fill:#0C1F42;}
	.st6{fill:url(#SVGID_2_);}
	.st7{fill:#354664;}
	.st8{fill:#2BC2E1;}
	.st9{fill:#C1C6CF;}
	.st10{fill:#253959;stroke:#97A0AF;stroke-width:4.8542;stroke-miterlimit:10;}
	.st11{fill:#37B37E;stroke:#354664;stroke-width:1.2328;stroke-miterlimit:10;}
	.st12{opacity:0.5;fill:#37B37E;stroke:#354664;stroke-width:1.2328;stroke-miterlimit:10;}
	.st13{opacity:0.8;}
	.st14{fill:none;stroke:#172B4D;stroke-width:1.326;stroke-miterlimit:10;}
	.st15{opacity:0.5;}
	.st16{fill:#F68C1F;}
	.st17{fill:#FBAA19;}
	.st18{opacity:0.25;}
	.st19{fill:#FFC50F;}
	.st20{opacity:0.5;fill:url(#SVGID_3_);}
	.st21{fill:#A6AEBA;}
	.st22{opacity:0.5;fill:url(#SVGID_4_);}
	.st23{fill:url(#XMLID_2_);}
	.st24{fill:#EBEBEF;}
	.st25{fill:#E0E2E5;}
	.st26{fill:#00B8D9;}
	.st27{fill:#FFF0B3;}
	.st28{fill:#CFA38C;}
	.st29{fill:#F4F5F7;}
	.st30{fill:url(#SVGID_5_);}
	.st31{clip-path:url(#XMLID_4_);fill:url(#SVGID_6_);}
	.st32{clip-path:url(#XMLID_6_);fill:url(#SVGID_7_);}
	.st33{opacity:0.66;}
	.st34{fill:url(#SVGID_8_);}
	.st35{fill:#F89925;}
	.st36{fill:#6C798F;}
	.st37{fill:#9C7862;}
	.st38{fill:#B4917C;}
	.st39{fill:#253858;}
	.st40{clip-path:url(#XMLID_10_);fill:url(#SVGID_9_);}
	.st41{fill:url(#SVGID_10_);}
	.st42{fill:none;stroke:#5F6D85;stroke-width:1.1933;stroke-miterlimit:10;}
	.st43{fill:#6492CD;}
	.st44{fill:#4B7BBE;}
	.st45{fill:#02A3BF;}
	.st46{fill:#325BA9;}
	.st47{fill:#FEE381;}
	.st48{fill:url(#SVGID_11_);}
	.st49{fill:#EACBC6;}
	.st50{clip-path:url(#XMLID_13_);fill:#E0E2E5;stroke:#C1C6CF;stroke-width:0.7146;stroke-miterlimit:10;}
	.st51{fill:#F1DAD5;}
	.st52{clip-path:url(#XMLID_15_);fill:#C1C6CF;}
	.st53{clip-path:url(#XMLID_15_);fill:none;stroke:#C1C6CF;stroke-width:0.6644;stroke-miterlimit:10;}
	.st54{clip-path:url(#XMLID_17_);fill:#00B8D9;}
	.st55{clip-path:url(#XMLID_19_);fill:#00B8D9;}
	.st56{fill:#FAFCFE;}
</style>
<g>
	<g>
		<circle class="st0" cx="588.5" cy="162.4" r="1.9"/>
		<circle class="st0" cx="343.5" cy="301.7" r="1.9"/>
		<circle class="st0" cx="590.5" cy="146.8" r="1.9"/>
		<circle class="st0" cx="560" cy="74" r="1.9"/>
		<circle class="st0" cx="511.8" cy="99.9" r="1.9"/>
		<circle class="st0" cx="503" cy="34.9" r="1.9"/>
		<circle class="st0" cx="558.2" cy="13.7" r="3.8"/>
	</g>
	<path class="st1" d="M434.2,198.7c0,0,30,8.8,38.8-13.4c8.8-22.1-13.5-34.3-25.4-35.7c-11.9-1.4-39.2,2.2-54.5-6.7
		c-15.3-8.9-19.7-51.9-43-46"/>
	
		<rect x="396.4" y="142.5" transform="matrix(0.9558 -0.2941 0.2941 0.9558 -25.2661 123.3667)" class="st2" width="2.3" height="6.5"/>
	<line class="st3" x1="411.6" y1="130.3" x2="176.3" y2="201.5"/>
	<g>
		
			<linearGradient id="SVGID_1_" gradientUnits="userSpaceOnUse" x1="-3376.1855" y1="-849.7338" x2="-3413.95" y2="-806.4352" gradientTransform="matrix(0.2871 0.9579 -0.9579 0.2871 634.1938 3601.1545)">
			<stop  offset="6.269677e-02" style="stop-color:#184BA0"/>
			<stop  offset="8.198024e-02" style="stop-color:#325BA9"/>
			<stop  offset="0.165" style="stop-color:#325BA9"/>
			<stop  offset="0.188" style="stop-color:#184BA0"/>
			<stop  offset="0.6101" style="stop-color:#184BA0"/>
			<stop  offset="0.6331" style="stop-color:#325BA9"/>
			<stop  offset="0.8025" style="stop-color:#325BA9"/>
			<stop  offset="0.8207" style="stop-color:#184BA0"/>
		</linearGradient>
		<polygon class="st4" points="420.1,161 401.7,99.6 502.6,69.3 521,130.7 		"/>
		
			<rect x="406.2" y="91.9" transform="matrix(0.2871 0.9579 -0.9579 0.2871 406.5233 -327.1788)" class="st5" width="33.8" height="35.3"/>
		<g>
			<polyline class="st3" points="410.9,130.6 444.8,120.4 435.7,90 			"/>
			<polyline class="st3" points="469,80 478.1,110.4 511.9,100.3 			"/>
			<polyline class="st3" points="511.9,100.3 478.1,110.4 487.2,140.8 			"/>
			<polyline class="st3" points="453.9,150.8 444.8,120.4 410.9,130.6 			"/>
			<polyline class="st3" points="435.5,89.4 444.8,120.4 478.1,110.4 469,80 			"/>
			<polyline class="st3" points="487.2,140.8 478.1,110.4 444.8,120.4 453.9,150.8 			"/>
		</g>
	</g>
	<g>
		
			<linearGradient id="SVGID_2_" gradientUnits="userSpaceOnUse" x1="-3373.1929" y1="-504.8301" x2="-3413.0107" y2="-453.6574" gradientTransform="matrix(0.2871 0.9579 -0.9579 0.2871 634.1938 3601.1545)">
			<stop  offset="6.269677e-02" style="stop-color:#184BA0"/>
			<stop  offset="8.198024e-02" style="stop-color:#325BA9"/>
			<stop  offset="0.165" style="stop-color:#325BA9"/>
			<stop  offset="0.188" style="stop-color:#184BA0"/>
			<stop  offset="0.6101" style="stop-color:#184BA0"/>
			<stop  offset="0.6331" style="stop-color:#325BA9"/>
			<stop  offset="0.8025" style="stop-color:#325BA9"/>
			<stop  offset="0.8207" style="stop-color:#184BA0"/>
		</linearGradient>
		<polygon class="st6" points="85.3,262 66.9,200.6 167.8,170.3 186.2,231.7 		"/>
		<g>
			<polyline class="st3" points="76.2,231.6 110,221.4 100.9,191 			"/>
			<polyline class="st3" points="134.2,181 143.3,211.4 177.1,201.3 			"/>
			<polyline class="st3" points="177.1,201.3 143.3,211.4 152.4,241.8 			"/>
			<polyline class="st3" points="119.1,251.8 110,221.4 76.2,231.6 			"/>
			<polyline class="st3" points="100.9,191 110,221.4 143.3,211.4 134.2,181 			"/>
			<polyline class="st3" points="152.4,241.8 143.3,211.4 110,221.4 119.1,251.8 			"/>
		</g>
	</g>
	<g>
		<circle class="st0" cx="31.4" cy="118.2" r="1.9"/>
		<circle class="st0" cx="95.9" cy="18.5" r="1.9"/>
		<circle class="st0" cx="190.2" cy="63.4" r="1.9"/>
		<circle class="st0" cx="30.5" cy="155.5" r="1.9"/>
		<circle class="st0" cx="145.8" cy="66.7" r="1.9"/>
		<circle class="st0" cx="154.5" cy="53.6" r="1.9"/>
		<circle class="st0" cx="120.6" cy="41.5" r="1.9"/>
		<circle class="st0" cx="129.8" cy="96.1" r="1.9"/>
		<circle class="st0" cx="20.2" cy="136.7" r="3.8"/>
		<circle class="st0" cx="326.2" cy="289.5" r="3.8"/>
	</g>
	<g>
		<path class="st7" d="M222.3,275.9l-43.4-142.3c-0.6-1.9,0.5-3.9,2.4-4.5l186.4-56.9c1.9-0.6,3.9,0.5,4.5,2.4l43.4,142.3
			c0.6,1.9-0.5,3.9-2.4,4.5l-186.4,56.9C224.9,278.8,222.9,277.8,222.3,275.9z"/>
		<path class="st7" d="M226.3,280.8c-2.8,0.2-5.4-1.5-6.3-4.2l-43.4-142.3c-0.5-1.5-0.3-3.2,0.4-4.6c0.8-1.4,2-2.5,3.6-2.9
			l186.4-56.9c3.2-1,6.6,0.8,7.5,4l43.4,142.3c1,3.2-0.8,6.6-4,7.5l-186.4,56.9C227.1,280.7,226.7,280.8,226.3,280.8z M224.6,275.2
			c0.2,0.6,0.8,1,1.5,0.8L412.5,219c0.4-0.1,0.6-0.4,0.7-0.6c0.1-0.2,0.2-0.5,0.1-0.9L369.8,75.3c-0.2-0.6-0.8-1-1.5-0.8L182,131.4
			c-0.4,0.1-0.6,0.4-0.7,0.6c-0.1,0.2-0.2,0.5-0.1,0.9L224.6,275.2z"/>
	</g>
	<g>
		<path class="st8" d="M222,106l-25.4,7.7c-0.2,0.1-0.5-0.1-0.6-0.3l-0.9-2.8c-0.1-0.2,0.1-0.5,0.3-0.6l25.4-7.7
			c0.2-0.1,0.5,0.1,0.6,0.3l0.9,2.8C222.4,105.6,222.2,105.9,222,106z"/>
		<path class="st9" d="M252.1,96.8l-25.4,7.7c-0.2,0.1-0.5-0.1-0.6-0.3l-0.9-2.8c-0.1-0.2,0.1-0.5,0.3-0.6L251,93
			c0.2-0.1,0.5,0.1,0.6,0.3l0.9,2.8C252.5,96.4,252.3,96.7,252.1,96.8z"/>
		<path class="st10" d="M219.6,266.8l-43.4-142.3c-0.6-1.9,0.5-3.9,2.4-4.5l186.4-56.9c1.9-0.6,3.9,0.5,4.5,2.4l43.4,142.3
			c0.6,1.9-0.5,3.9-2.4,4.5l-186.4,56.9C222.2,269.8,220.2,268.7,219.6,266.8z"/>
		<line class="st11" x1="385.9" y1="183.4" x2="367.6" y2="162.1"/>
		<line class="st11" x1="372.4" y1="148" x2="367.3" y2="159.1"/>
		<line class="st11" x1="315.9" y1="103" x2="292.4" y2="131"/>
		<path class="st11" d="M360.5,140.4"/>
		<path class="st11" d="M371.3,146.1"/>
		<line class="st11" x1="371.4" y1="145.6" x2="293.5" y2="133.6"/>
		<line class="st12" x1="385.9" y1="183.4" x2="367.6" y2="162.1"/>
		<line class="st12" x1="372.4" y1="148" x2="367.3" y2="159.1"/>
		<line class="st12" x1="315.9" y1="103" x2="292.4" y2="131"/>
		<line class="st12" x1="371.4" y1="145.6" x2="293.5" y2="133.6"/>
		<g>
			<g class="st13">
				<circle class="st8" cx="386.4" cy="183.7" r="1.9"/>
			</g>
			<circle class="st0" cx="300.1" cy="206.2" r="1.9"/>
			<circle class="st0" cx="265.2" cy="212.4" r="1.9"/>
			<circle class="st0" cx="254.9" cy="132.3" r="1.9"/>
			<circle class="st0" cx="354.5" cy="93.7" r="1.9"/>
			<circle class="st0" cx="340" cy="105.7" r="3.9"/>
			<circle class="st0" cx="302.7" cy="225" r="3.9"/>
		</g>
		<g>
			<polyline class="st14" points="319.6,79.5 334.4,127.9 381.5,113.5 			"/>
			<polyline class="st14" points="396.1,161.2 348.9,175.6 363.7,224 			"/>
			<polyline class="st14" points="192.9,171.1 240.1,156.7 225.3,108.3 			"/>
			<polyline class="st14" points="269.4,252.8 254.6,204.4 207.5,218.8 			"/>
			<polyline class="st14" points="272.4,93.9 287.2,142.3 334.4,127.9 319.6,79.5 			"/>
			<polyline class="st14" points="363.7,224 348.9,175.6 301.8,190 316.5,238.4 			"/>
			<polyline class="st14" points="225.3,108.3 240.1,156.7 287.2,142.3 272.4,93.9 			"/>
			<polyline class="st14" points="316.5,238.4 301.8,190 254.6,204.4 269.4,252.8 			"/>
			<polyline class="st14" points="381.5,113.5 334.4,127.9 348.9,175.6 396.1,161.2 			"/>
			<polyline class="st14" points="207.5,218.8 254.6,204.4 240.1,156.7 192.9,171.1 			"/>
			
				<rect x="293.4" y="134" transform="matrix(0.9564 -0.2919 0.2919 0.9564 -32.5509 99.7796)" class="st14" width="49.3" height="49.9"/>
			
				<rect x="246.3" y="148.4" transform="matrix(0.9564 -0.2919 0.2919 0.9564 -38.8069 86.6408)" class="st14" width="49.3" height="49.9"/>
		</g>
	</g>
	<g>
		<g>
			<g class="st15">
				<path class="st16" d="M317.3,101.9c11.8,0,23.7,3.9,33.3,10.9c10,7.2,17.1,17.3,20.8,29.1c4.4,14.4,3,29.8-4.1,43.1
					c-7.1,13.3-18.9,23.1-33.4,27.6c-5.4,1.7-11,2.5-16.6,2.5c-11.8,0-23.7-3.9-33.3-10.9c-10-7.2-17.1-17.3-20.8-29.1
					c-4.4-14.4-3-29.8,4.1-43.1c7.1-13.3,18.9-23.1,33.4-27.6C306.1,102.7,311.7,101.9,317.3,101.9L317.3,101.9 M317.3,100.2
					c-5.7,0-11.4,0.8-17.1,2.6c-30.7,9.4-48,42-38.6,72.7c7.7,25.1,30.7,41.2,55.7,41.2c5.7,0,11.4-0.8,17.1-2.6
					c30.7-9.4,48-42,38.6-72.7C365.3,116.3,342.3,100.2,317.3,100.2L317.3,100.2z"/>
			</g>
			<g>
				<path class="st17" d="M321.1,123.1c9.6,0,19.1,3.1,26.9,8.8c8,5.8,13.8,14,16.7,23.5c7.4,24.1-6.2,49.7-30.3,57
					c-4.4,1.3-8.9,2-13.4,2c-9.6,0-19.1-3.1-26.9-8.8c-8-5.8-13.8-14-16.7-23.5c-3.6-11.7-2.4-24,3.3-34.8
					c5.7-10.8,15.3-18.7,26.9-22.2C312,123.7,316.5,123.1,321.1,123.1L321.1,123.1 M321.1,121.4c-4.6,0-9.3,0.7-13.9,2.1
					c-25,7.7-39,34.1-31.4,59.1c6.2,20.4,25,33.5,45.2,33.5c4.6,0,9.3-0.7,13.9-2.1c25-7.7,39-34.1,31.4-59.1
					C360,134.5,341.3,121.4,321.1,121.4L321.1,121.4z"/>
			</g>
			<g class="st18">
				<path class="st19" d="M323.7,214.9c-15.7,0-29.4-10.1-34-25.2c-5.7-18.7,4.8-38.7,23.6-44.4c3.4-1,6.9-1.6,10.4-1.6
					c15.7,0,29.4,10.1,34,25.2c2.8,9.1,1.9,18.7-2.6,27.1c-4.5,8.4-11.9,14.5-21,17.3C330.7,214.4,327.2,214.9,323.7,214.9z"/>
				<path class="st19" d="M323.7,142.9l0,1.7h0c15.4,0,28.7,9.9,33.2,24.6c2.7,8.9,1.8,18.3-2.5,26.5s-11.6,14.2-20.5,16.9
					c-3.3,1-6.8,1.5-10.2,1.5c-15.4,0-28.7-9.9-33.2-24.6c-5.6-18.3,4.7-37.8,23-43.4c3.3-1,6.8-1.5,10.2-1.5L323.7,142.9
					 M323.7,142.9c-3.5,0-7.1,0.5-10.7,1.6c-19.2,5.9-30,26.2-24.1,45.5c4.8,15.7,19.2,25.7,34.8,25.7c3.5,0,7.1-0.5,10.7-1.6
					c19.2-5.9,30-26.2,24.1-45.5C353.7,153,339.3,142.9,323.7,142.9L323.7,142.9z"/>
			</g>
			<g>
				<g>
					<path class="st17" d="M323.7,142.9l0,1.7h0c15.4,0,28.7,9.9,33.2,24.6c2.7,8.9,1.8,18.3-2.5,26.5s-11.6,14.2-20.5,16.9
						c-3.3,1-6.8,1.5-10.2,1.5c-15.4,0-28.7-9.9-33.2-24.6c-5.6-18.3,4.7-37.8,23-43.4c3.3-1,6.8-1.5,10.2-1.5L323.7,142.9
						 M323.7,142.9c-3.5,0-7.1,0.5-10.7,1.6c-19.2,5.9-30,26.2-24.1,45.5c4.8,15.7,19.2,25.7,34.8,25.7c3.5,0,7.1-0.5,10.7-1.6
						c19.2-5.9,30-26.2,24.1-45.5C353.7,153,339.3,142.9,323.7,142.9L323.7,142.9z"/>
				</g>
			</g>
			<g>
				<g>
					<path class="st17" d="M326.9,164.3l0,1.7h0c10.5,0,19.7,6.8,22.8,16.8c3.8,12.6-3.2,25.9-15.8,29.8c-2.3,0.7-4.6,1.1-7,1.1
						c-10.5,0-19.7-6.8-22.8-16.8c-3.8-12.6,3.2-25.9,15.8-29.8c2.3-0.7,4.6-1.1,7-1.1L326.9,164.3 M326.9,164.3
						c-2.5,0-5,0.4-7.5,1.1c-13.5,4.1-21,18.4-16.9,31.8c3.4,11,13.4,18,24.3,18c2.5,0,5-0.4,7.5-1.1c13.5-4.1,21-18.4,16.9-31.8
						C347.9,171.3,337.8,164.3,326.9,164.3L326.9,164.3z"/>
				</g>
			</g>
		</g>
	</g>
	
		<linearGradient id="SVGID_3_" gradientUnits="userSpaceOnUse" x1="-1321.028" y1="3054.5544" x2="-1285.0724" y2="3054.5544" gradientTransform="matrix(0.8052 -0.5929 0.5929 0.8052 -315.5991 -3194.6733)">
		<stop  offset="0" style="stop-color:#BCE5F1"/>
		<stop  offset="2.574468e-02" style="stop-color:#B7E4F1;stop-opacity:0.9743"/>
		<stop  offset="0.3328" style="stop-color:#87D4E9;stop-opacity:0.6672"/>
		<stop  offset="0.6085" style="stop-color:#5FCAE5;stop-opacity:0.3915"/>
		<stop  offset="0.8402" style="stop-color:#3DC4E2;stop-opacity:0.1598"/>
		<stop  offset="1" style="stop-color:#2BC2E1;stop-opacity:0"/>
	</linearGradient>
	<path class="st20" d="M427.7,42.7l29-21.3c1.4,1.9,2.6,3.9,3.6,6.1c1,2.1,1.8,4.4,2.4,6.6L427.7,42.7z"/>
	<polygon class="st21" points="432.3,38.5 434.2,40.9 431.5,42.3 430.4,41 	"/>
	
		<linearGradient id="SVGID_4_" gradientUnits="userSpaceOnUse" x1="-2851.2986" y1="3482.2173" x2="-2816.9475" y2="3482.2173" gradientTransform="matrix(0.4807 -0.8769 0.8769 0.4807 -1250.0563 -4130.6465)">
		<stop  offset="0" style="stop-color:#BCE5F1"/>
		<stop  offset="2.574468e-02" style="stop-color:#B7E4F1;stop-opacity:0.9743"/>
		<stop  offset="0.3328" style="stop-color:#87D4E9;stop-opacity:0.6672"/>
		<stop  offset="0.6085" style="stop-color:#5FCAE5;stop-opacity:0.3915"/>
		<stop  offset="0.8402" style="stop-color:#3DC4E2;stop-opacity:0.1598"/>
		<stop  offset="1" style="stop-color:#2BC2E1;stop-opacity:0"/>
	</linearGradient>
	<path class="st22" d="M427.1,40.4l16.5-30.1c2,1.1,3.8,2.4,5.6,3.8s3.3,3.1,4.7,4.8L427.1,40.4z"/>
	<polygon class="st21" points="429.5,35.1 431.4,37.5 428.7,38.9 427.5,37.6 	"/>
	<path class="st21" d="M429.8,38l1.5,1.9c0.6,0.7,0.5,1.8-0.2,2.4l-11,9c-0.7,0.6-1.8,0.5-2.4-0.2l-1.5-1.9
		c-0.6-0.7-0.5-1.8,0.2-2.4l11-9C428.1,37.2,429.2,37.3,429.8,38z"/>
	<path class="st9" d="M428.2,36.1l1.5,1.9c0.6,0.7,0.5,1.8-0.2,2.4l-11,9c-0.7,0.6-1.8,0.5-2.4-0.2l-1.5-1.9
		c-0.6-0.7-0.5-1.8,0.2-2.4l11-9C426.5,35.3,427.6,35.4,428.2,36.1z"/>
	<g>
		
			<linearGradient id="XMLID_2_" gradientUnits="userSpaceOnUse" x1="-2823.8118" y1="-1533.2303" x2="-2809.6516" y2="-1533.2303" gradientTransform="matrix(0.8341 0.5516 -0.5516 0.8341 1922.4232 3020.2964)">
			<stop  offset="0" style="stop-color:#FAFCFE;stop-opacity:0.1"/>
			<stop  offset="1" style="stop-color:#F4F5F7"/>
		</linearGradient>
		<path id="XMLID_68_" class="st23" d="M424.6,191.6c-2.2,3.3-6.5,4.2-9.8,2c-3.3-2.2-4.2-6.5-2-9.8c2.2-3.3,6.5-4.2,9.8-2
			C425.8,184,426.7,188.4,424.6,191.6z"/>
		<g>
			<path class="st21" d="M425.6,211.8l-4-0.9c-1.6-0.4-2.5-1.9-2.2-3.5l5.3-23.3c0.4-1.6,1.9-2.5,3.5-2.2l4,0.9
				c1.6,0.4,2.5,1.9,2.2,3.5l-5.3,23.3C428.7,211.1,427.1,212.1,425.6,211.8z"/>
			<path class="st9" d="M429.7,212.7l-4-0.9c-1.6-0.4-2.5-1.9-2.2-3.5l5.3-23.3c0.4-1.6,1.9-2.5,3.5-2.2l4,0.9
				c1.6,0.4,2.5,1.9,2.2,3.5l-5.3,23.3C432.8,212.1,431.2,213.1,429.7,212.7z"/>
			<path class="st5" d="M418.1,184.5c-1.5,0.1-3,1.7-2.9,3c0,0.8,0.6,1,0.8,1.9c0.2,1.5-1.4,2.2-1.4,3.4c-0.2,2.6,3.2,2.7,4.9,2
				c0.7-0.3,1.4-0.8,2.1-1.2c0.5-0.3,1-0.6,1.4-1.1c0.6-0.9,0.3-1.8-0.2-2.7c-0.4-0.7-0.5-1.3-0.8-2
				C421.4,186.2,419.9,184.4,418.1,184.5z"/>
			<path class="st9" d="M417.1,192.1c-2.7,1.1-5.3,2.2-8,3.3c-0.1,0-0.2,0-0.3,0c-2.8-0.9-5.6-1.9-8.3-2.8c-0.3-0.1-0.6,0.1-0.6,0.4
				l-0.1,2.9c0,0.2,0.1,0.3,0.2,0.4c1.1,0.5,2.4,1.1,3.9,1.6c1.9,0.6,3.7,1,5.2,1.3c0.1,0,0.1,0,0.1,0c1.3-0.2,2.9-0.6,4.5-1.1
				c2.3-0.8,4.2-1.7,5.7-2.6c0.2-0.1,0.3-0.4,0.1-0.6c-0.7-0.8-1.3-1.7-2-2.5C417.5,192,417.3,192,417.1,192.1z"/>
			<path class="st24" d="M421.2,241c0.2,0,0.4,0,0.5,0.2c0.2,0.2,0.3,0.7,0.1,1.2c-0.1,0.2-0.1,0.6-0.1,0.9c0,0.3-0.3,0.6-0.7,0.6
				c-2.3-0.3-6.5-0.8-8.3-1.1c0.2-0.1,0.5-0.2,0.8-0.3c1.2-0.5,1.6-0.6,2.1-0.8c0.4-0.2,1-0.6,1.7-1.2
				C417.7,240.5,420.7,240.9,421.2,241z"/>
			<path class="st24" d="M394.3,232.4c-0.2,0.4,2.8,0.6,2.6,1c-0.3,0.5-1.8,2.9-2,3.3c-0.1,0.2-0.4,0.3-0.6,0.1
				c-1.4-1.2-5.7-4.9-7.2-6.1c0-0.2,0-0.4,0.2-0.5c0.2-0.2,0.6,0,0.9,0.1c0.9,0.4,2.1,0.8,2.9,0.7c0.5,0,1-0.2,1.4-0.4
				C392.7,231,393.9,232.1,394.3,232.4z"/>
			<g>
				<path class="st25" d="M422.6,204c-0.1-0.2-1.1-1.9-3-2.2c-1.7-0.3-3.4,0.6-8.2,5.6c-2.4,2.4-4.3,4.6-7.5,8.4
					c-2.8,3.3-4.3,5.1-6.5,7.9c-0.3,0.4-0.5,0.7-0.8,1l4.9,4.2c2.4-2.6,5.2-5.5,8.2-8.4c4.4-4.3,6.6-6.4,7.9-7.2
					c1.9-1.1,3.8-1.8,4.9-3.9C422.6,209.1,423.9,206.3,422.6,204z"/>
				<path class="st24" d="M391.8,230.9c1.4,1.3,2.8,2.5,4.3,3.8c0.8-0.9,1.7-1.9,2.7-3l-4.6-4C393.3,228.9,392.5,230,391.8,230.9z"
					/>
				<path class="st9" d="M394.2,227.8l4.6,4c0.8-0.9,1.7-1.8,2.6-2.8l-4.9-4.2C395.7,225.8,394.9,226.8,394.2,227.8z"/>
			</g>
			<g>
				<path class="st24" d="M423.2,208.1c0-1.8-0.1-5.2-2.1-6.2c-1.2-0.6-2.8-0.2-3.8,0.5c-0.8,0.6-2.2,2-2.3,10.1
					c0,1.3,0,3.3,0.5,11.1c0.3,4.4,0.4,5.2,0.6,8c0.1,0.8,0.1,1.7,0.1,2.4l5.9,0.3C422.6,226.7,423.3,214.9,423.2,208.1z"/>
				<path class="st24" d="M416.4,237.9c0,1.2,0.1,2.2,0.1,3c1.7,0.2,3.5,0.4,5.2,0.5c0-0.5,0.1-1.7,0.2-3.3L416.4,237.9z"/>
				<path class="st9" d="M422.2,234.3l-5.9-0.3c0.1,1.4,0.1,2.7,0.2,3.9l5.5,0.3C422,237.1,422.1,235.8,422.2,234.3z"/>
			</g>
			<path class="st25" d="M424.2,213.8c0,0.7-0.6,1.3-1.4,1.3c-2-0.1-4.2-0.3-6.7-0.9c-2.8-0.6-5.3-1.4-7.3-2.3
				c-0.8-0.4-1.1-1.4-0.4-2.1c1.5-1.6,2.7-3.1,3.6-4.3c0,0,3.3-4.7,2.6-6.4c-0.4-0.8-0.4-1.1-0.5-1.7c0-0.2,0-0.3,0-0.6
				c0-0.4,0.1-0.6,0.9-2.4c0.6-1.4,0.6-1.4,0.8-1.6c0.2-0.2,0.9-0.8,3.1-0.6c2.1,0.2,3.9,1,5.2,1.8c0.5,0.3,0.7,0.8,0.6,1.4
				c-0.3,1.3-0.7,2.3-1,3.1c-0.6,1.3-1.1,1.9-1.2,3.1c-0.1,1.3,0.5,2.3,0.7,2.6C423.8,205.4,424.4,208.1,424.2,213.8z"/>
			<g>
				<polygon class="st26" points="392.4,187.9 394.2,191.2 396.1,188.3 				"/>
				<polygon class="st27" points="396.1,188.3 394.2,191.2 397.2,196.9 407.4,197.8 402.6,188.8 				"/>
				
					<rect x="412.1" y="183.7" transform="matrix(0.5525 -0.8335 0.8335 0.5525 16.413 438.8544)" class="st2" width="9.7" height="40.8"/>
				
					<rect x="413.1" y="185.8" transform="matrix(0.5525 -0.8335 0.8335 0.5525 14.1381 438.6435)" class="st26" width="4.8" height="40.8"/>
				
					<rect x="426.5" y="210.6" transform="matrix(0.5525 -0.8335 0.8335 0.5525 14.8979 455.1711)" class="st27" width="9.7" height="6.1"/>
				<path class="st26" d="M436.6,211.4l-5.3,8.1l2.2,1.4c0.5,0.3,1.2,0.2,1.5-0.3l4.1-6.2c0.3-0.5,0.2-1.2-0.3-1.5L436.6,211.4z"/>
			</g>
			<path id="XMLID_67_" class="st28" d="M416.4,188.2c0,0,0,0.1,0.2,0.2c0.1,0.1,0.2,0.2,0.2,0.2c0,0.2,0,0.4-0.1,0.6
				c0,0.4,0,0.7,0,1.1c0.3,0.1,0.6,0.2,1.1,0.3c0.5,0.1,1.1,0.3,2,0.2c0.3,0,0.9-0.1,1.3-0.3c1-0.5,2-1.9,1.6-3.4
				c-0.4-1.6-2.3-2.5-3.6-2.1c-0.2,0-1,0.3-1.4,1c0,0.1-0.1,0.1-0.1,0.2c-0.1,0.2-0.1,0.3-0.1,0.3c-0.2,0.5-0.3,0.8-0.3,0.8
				c-0.2,0.3-0.5,0.6-0.5,0.6C416.6,188,416.4,188.1,416.4,188.2z"/>
			<path class="st28" d="M421.4,189.5c-0.4,0.6-0.6,1.1-0.6,1.4c-0.2,0.9,0,1.2,0,1.3c0,0.1,0.1,0.1,0.1,0.1c0.1,0,0.3,0.1,0.4,0.1
				c0.2,0.1,0.3,0.1,0.4,0.2c-0.3,0.6-0.8,1.1-1.3,1.4c-0.1,0.1-0.2,0.1-0.3,0.1c-0.2,0-0.3-0.1-0.5-0.1c-0.2-0.1-0.4-0.1-0.6-0.1
				c-0.7,0-1.4-0.1-2-0.2c-0.2,0-0.4-0.1-0.6-0.2c-0.6-0.4,0-1.3,0.5-1.5c0.4-0.2,0.8-0.1,1.1-0.5c0.2-0.3,0.2-0.7,0-1
				C419.1,190.3,420.2,189.9,421.4,189.5z"/>
			<path class="st5" d="M418.5,188.4c0.9,1.2,0.2,2.1,1,3.2c0.4,0.5,0.9,0.8,1.3,0.9c0.1-0.5,0.2-1.1,0.7-1.7
				c0.6-0.9,1.2-0.8,1.6-1.5c0.5-1-0.2-2.6-0.9-3.4c-1.1-1.2-2.6-1.3-3-1.3c-0.4,0-1.7-0.1-2.4,0.7c-0.1,0.1-0.5,0.6-0.3,1
				c0.1,0.2,0.2,0.3,0.3,0.3C417.5,186.9,418.2,187.8,418.5,188.4z"/>
			<path class="st29" d="M409.8,206.6l-0.7-0.1c-0.4-0.1-0.8-0.3-1.1-0.6l-1.5-1.9l0.2-1.1l1.8,1.2l0.1-0.8l0.4,0l0.3,0.9
				L409.8,206.6z"/>
			
				<linearGradient id="SVGID_5_" gradientUnits="userSpaceOnUse" x1="-236.4277" y1="-277.8945" x2="-236.4277" y2="-292.2401" gradientTransform="matrix(0.9908 0.1353 -0.1353 0.9908 612.4344 514.7971)">
				<stop  offset="0" style="stop-color:#C1C6CF"/>
				<stop  offset="0.7731" style="stop-color:#EBEBEF"/>
			</linearGradient>
			<path class="st30" d="M420.9,193.7c-1.4,2.7-2.8,5.4-4.2,8.1c-2.5,0.8-5,1.6-7.5,2.4c0.3,1.5,0.2,1,0.6,2.5
				c1.4-0.2,2.8-0.4,4.4-0.7c1.9-0.4,3.7-0.9,5.2-1.4c0.9-1,1.9-2.3,2.8-3.8c1-1.7,1.8-3.3,2.3-4.7c0.3-0.7-0.2-1.6-1-1.7
				L420.9,193.7z"/>
			<g>
				<defs>
					<path id="XMLID_63_" d="M424.5,191.7c-2.2,3.2-6.6,4-9.8,1.8c-3.2-2.2-4-6.6-1.8-9.8c2.2-3.2,6.6-4,9.8-1.8
						C425.9,184.1,426.7,188.5,424.5,191.7z"/>
				</defs>
				
					<linearGradient id="XMLID_3_" gradientUnits="userSpaceOnUse" x1="-2884.009" y1="-1531.5593" x2="-2869.8491" y2="-1531.5593" gradientTransform="matrix(0.8246 0.5657 -0.5657 0.8246 1924.6898 3078.0986)">
					<stop  offset="0" style="stop-color:#FAFCFE;stop-opacity:0.1"/>
					<stop  offset="1" style="stop-color:#F4F5F7"/>
				</linearGradient>
				<use xlink:href="#XMLID_63_"  style="overflow:visible;fill:url(#XMLID_3_);"/>
				<clipPath id="XMLID_4_">
					<use xlink:href="#XMLID_63_"  style="overflow:visible;"/>
				</clipPath>
				
					<linearGradient id="SVGID_6_" gradientUnits="userSpaceOnUse" x1="3519.6548" y1="-455.4712" x2="3531.1843" y2="-455.4712" gradientTransform="matrix(-0.9659 -0.259 -0.259 0.9659 3707.0098 1543.7104)">
					<stop  offset="0" style="stop-color:#C1C6CF"/>
					<stop  offset="0.7731" style="stop-color:#EBEBEF"/>
				</linearGradient>
				<path class="st31" d="M425.7,187.2c-0.5-0.1-1.2-0.2-2-0.1c-2.7,0.5-3.4,3-6,4.4c-0.9,0.4-2.3,0.9-4.2,0.7
					c2.5,3.6,7.2,4.3,10,2.3C425.5,193,426.4,190.1,425.7,187.2z"/>
			</g>
			<g>
				<defs>
					<path id="XMLID_62_" d="M424.5,191.7c-2.2,3.2-6.6,4-9.8,1.8c-3.2-2.2-4-6.6-1.8-9.8c2.2-3.2,6.6-4,9.8-1.8
						C425.9,184.1,426.7,188.5,424.5,191.7z"/>
				</defs>
				
					<linearGradient id="XMLID_5_" gradientUnits="userSpaceOnUse" x1="-2884.009" y1="-1531.5593" x2="-2869.8491" y2="-1531.5593" gradientTransform="matrix(0.8246 0.5657 -0.5657 0.8246 1924.6898 3078.0986)">
					<stop  offset="0" style="stop-color:#FAFCFE;stop-opacity:0.1"/>
					<stop  offset="1" style="stop-color:#F4F5F7"/>
				</linearGradient>
				<use xlink:href="#XMLID_62_"  style="overflow:visible;fill:url(#XMLID_5_);"/>
				<clipPath id="XMLID_6_">
					<use xlink:href="#XMLID_62_"  style="overflow:visible;"/>
				</clipPath>
				
					<linearGradient id="SVGID_7_" gradientUnits="userSpaceOnUse" x1="3519.6548" y1="-455.4712" x2="3531.1843" y2="-455.4712" gradientTransform="matrix(-0.9659 -0.259 -0.259 0.9659 3707.0098 1543.7104)">
					<stop  offset="0" style="stop-color:#C1C6CF"/>
					<stop  offset="0.7731" style="stop-color:#EBEBEF"/>
				</linearGradient>
				<path class="st32" d="M425.7,187.2c-0.5-0.1-1.2-0.2-2-0.1c-2.7,0.5-3.4,3-6,4.4c-0.9,0.4-2.3,0.9-4.2,0.7
					c2.5,3.6,7.2,4.3,10,2.3C425.5,193,426.4,190.1,425.7,187.2z"/>
			</g>
		</g>
	</g>
	<g class="st33">
		
			<rect x="210.5" y="137.6" transform="matrix(0.9595 -0.2816 0.2816 0.9595 -30.4556 65.6364)" class="st8" width="5.4" height="2.4"/>
		<polygon class="st8" points="230.7,156.2 217,160.1 216.3,157.8 230,153.8 		"/>
		
			<rect x="222.6" y="176.4" transform="matrix(0.9595 -0.2816 0.2816 0.9595 -40.8914 70.6264)" class="st8" width="5.4" height="2.4"/>
		<polygon class="st8" points="254.6,191 229.1,198.9 228.4,196.6 253.9,188.6 		"/>
		<polygon class="st8" points="253.8,212.7 235.2,218.4 234.5,216 253.1,210.3 		"/>
		
			<rect x="240.9" y="235.3" transform="matrix(0.9595 -0.2816 0.2816 0.9595 -56.7332 78.1552)" class="st8" width="5.4" height="2.4"/>
	</g>
	
		<linearGradient id="SVGID_8_" gradientUnits="userSpaceOnUse" x1="708.1678" y1="-37.8529" x2="657.8777" y2="-58.7701" gradientTransform="matrix(0.9112 0.4121 -0.4121 0.9112 -207.823 -120.7775)">
		<stop  offset="6.269677e-02" style="stop-color:#184BA0"/>
		<stop  offset="8.198024e-02" style="stop-color:#325BA9"/>
		<stop  offset="0.165" style="stop-color:#325BA9"/>
		<stop  offset="0.188" style="stop-color:#184BA0"/>
		<stop  offset="0.6101" style="stop-color:#184BA0"/>
		<stop  offset="0.6331" style="stop-color:#325BA9"/>
		<stop  offset="0.8025" style="stop-color:#325BA9"/>
		<stop  offset="0.8207" style="stop-color:#184BA0"/>
	</linearGradient>
	<polygon class="st34" points="392.3,106 399.5,73.8 433.7,81.5 426.5,113.6 	"/>
	<g>
		<path class="st35" d="M419.8,51.2c-0.8,0.6-1,1.8-0.5,5.2c0.3,2.3,1,5.6,2.6,9.6c-0.5,4.2-0.9,8.4-1.4,12.6
			c0.8,0.2,1.6,0.3,2.4,0.5c2.9-5.1,3.4-9.2,3.3-12.1c0-1.5-0.2-1.2-0.8-6.9c-0.6-5.7-0.8-8.5-0.8-8.5c0-0.1,0.1-0.4-0.1-0.6
			C424,50.1,421.1,50.3,419.8,51.2z"/>
	</g>
	<g>
		
			<rect x="461" y="24.7" transform="matrix(0.5258 0.8506 -0.8506 0.5258 241.0049 -381.0554)" class="st36" width="2.6" height="1.9"/>
		<path class="st9" d="M427.9,80.8l0.9,3.5c0.1,0.2,0.3,0.3,0.5,0.2c0.1-0.2,0.2-0.4,0.3-0.4c0.1,0,0.2,0.1,0.3,0.1
			c0.2,0,0.4-0.4,0.5-0.5c0.1-0.2,0.1-0.3,0.1-0.4l0.4-0.4c0.1-0.1,0.2-0.3,0.1-0.5l0.3-0.7c0.2-0.2-0.2-1.3-0.2-1.3l-0.9-1.2
			c0-0.1,0-0.1-0.1-0.2c-0.2-0.2-0.5-0.2-0.6,0l-1.6,1.7C427.9,80.6,427.9,80.7,427.9,80.8z"/>
		<path class="st9" d="M428.8,77.3c0.5-0.2,0.6-2.3,1.4,1.2c0,0.2,0.4,1.1,0,1.9c-0.4,0.9-1.4,0.8-1.6,1.7c-0.1,0.5,0.1,0.8-0.2,1.3
			c-0.2,0.3-0.6,0.6-0.8,0.5c-0.2-0.1,0-0.6,0.1-1.7c0.1-1.1-0.1-1.1,0-1.9c0.1-0.4,0.1-0.6,0.2-1.3c0.1-0.4,0.1-0.4,0.1-0.6
			C428.1,78.1,428.3,77.4,428.8,77.3z"/>
		<path class="st16" d="M430.1,44.5c1.5,2,3.8,4.5,6.9,6.9c2.8,2.1,5.5,3.6,7.7,4.6c0.7,0.3,1.6,0.3,2.2-0.2c1-0.6,1.9-1.2,2.9-1.8
			c3.7-2.4,7.3-4.8,10.6-7.2c-0.4-1.3-0.9-2.6-1.3-3.8c-1,0.5-2.4,1.2-4.2,2c-2.4,1.1-3.4,1.4-5.3,2.3c-1.1,0.5-2.5,1.3-4.1,2.5
			l-9.7-9.6L430.1,44.5z"/>
		<path class="st35" d="M431.6,41.9c0.3-0.4,0.7-0.9,1.3-1.5c1.8-1.7,3.6-2.2,5.6-3c3.4-1.3,3.8-2.7,7.1-3.7
			c0.7-0.2,1.2-0.4,1.6-0.4c1-1,2.1-2,3.3-3c3.6-2.9,7.1-5,10.2-6.4c0.6,1.2,1.2,2.5,1.9,3.7c-6.4,5.3-11.6,9.7-15,12.6
			c-7.3,6.3-10.9,9.6-13.4,8.4C432.1,47.8,431.6,44.6,431.6,41.9z"/>
		<g>
			<g>
				<path class="st37" d="M417.8,52.7c0.2-0.2,0.7,0.1,1.5-0.3c0.2-0.1,0.4-0.2,0.5-0.3c0.4,0.3,1,1,1.3,2.1
					c0.2,0.7,0.3,1.3,0.3,1.7c-1.3,0.6-1.9,0.9-1.9,0.9s0,0,0.1,0C417.7,53.7,417.5,52.9,417.8,52.7z"/>
				<path class="st38" d="M412.5,58.1c0.4,0.1,0.9,0.1,1.4,0.2c0.7,0.1,1.3,0.1,1.8,0c0.1,0,0.3,0.1,0.5,0.2
					c0.6,0.3,1.1,0.6,1.2,0.5c0,0,0.1-0.5,0.2-0.5c0.1-0.2,1.5-0.3,2-0.7c0.7-0.5,1.1-4.4-1.1-5.1c-0.3-0.1-0.8-0.4-1.4-0.5
					c0,0.1,0,0.3-0.1,0.5c-0.2,0.5-0.5,0.7-0.6,0.8c-0.6,0.5-2.2,1.7-2.6,3c-0.1,0.2-0.2,0.5-0.4,0.9C413,57.8,412.7,58,412.5,58.1z
					"/>
				<path class="st39" d="M413.8,56.7c1.9-0.1,2.4-0.3,2.5-0.5c0-0.1-0.1-0.2-0.5-0.7c-0.5-0.7-0.5-0.8-0.5-0.9
					c0.1-0.2,0.7-0.1,0.9-0.1c0.4-0.5,0.7-1,1.1-1.5c0.2,0,0.5,0,0.8-0.3c0,0,0.1-0.1,0.1-0.1c-0.1-0.1-0.4-0.3-0.7-0.5
					c-1.2-0.8-3.5-1.6-4.9-0.6c-0.2,0.1-0.4,0.4-0.7,0.8c0,0-0.1,0.1-0.1,0.3c-0.5,1.2,0,4.2-0.4,5.6c0,0.1-0.1,0.4,0,0.6
					c0.2,0.2,0.5,0.2,0.7,0.1c0.3-0.2,0.6-0.4,0.9-0.8C413.5,57.5,413.7,57,413.8,56.7z"/>
			</g>
			<g>
				<defs>
					<path id="XMLID_61_" d="M412.6,48.2c4.2-1,8.5,1.7,9.4,5.9c1,4.2-1.7,8.5-5.9,9.4c-4.2,1-8.5-1.7-9.4-5.9
						C405.7,53.4,408.4,49.2,412.6,48.2z"/>
				</defs>
				
					<linearGradient id="XMLID_7_" gradientUnits="userSpaceOnUse" x1="-7499.1079" y1="2590.9871" x2="-7483.3623" y2="2590.9871" gradientTransform="matrix(-0.2228 -0.9749 0.9749 -0.2228 -3780.4783 -6669.7769)">
					<stop  offset="0" style="stop-color:#FAFCFE;stop-opacity:0.1"/>
					<stop  offset="1" style="stop-color:#F4F5F7"/>
				</linearGradient>
				<use xlink:href="#XMLID_61_"  style="overflow:visible;fill:url(#XMLID_7_);"/>
				<clipPath id="XMLID_8_">
					<use xlink:href="#XMLID_61_"  style="overflow:visible;"/>
				</clipPath>
			</g>
			<g>
				<defs>
					<path id="XMLID_60_" d="M412.6,48.2c4.2-1,8.5,1.7,9.4,5.9c1,4.2-1.7,8.5-5.9,9.4c-4.2,1-8.5-1.7-9.4-5.9
						C405.7,53.4,408.4,49.2,412.6,48.2z"/>
				</defs>
				
					<linearGradient id="XMLID_9_" gradientUnits="userSpaceOnUse" x1="-7499.1079" y1="2590.9871" x2="-7483.3623" y2="2590.9871" gradientTransform="matrix(-0.2228 -0.9749 0.9749 -0.2228 -3780.4783 -6669.7769)">
					<stop  offset="0" style="stop-color:#FAFCFE;stop-opacity:0.1"/>
					<stop  offset="1" style="stop-color:#F4F5F7"/>
				</linearGradient>
				<use xlink:href="#XMLID_60_"  style="overflow:visible;fill:url(#XMLID_9_);"/>
				<clipPath id="XMLID_10_">
					<use xlink:href="#XMLID_60_"  style="overflow:visible;"/>
				</clipPath>
				
					<linearGradient id="SVGID_9_" gradientUnits="userSpaceOnUse" x1="617.0359" y1="319.1794" x2="614.2292" y2="326.7014" gradientTransform="matrix(0.9526 0.3042 -0.3042 0.9526 -72.2447 -442.4125)">
					<stop  offset="0" style="stop-color:#F89925"/>
					<stop  offset="0.9779" style="stop-color:#FFC50F"/>
					<stop  offset="0.9883" style="stop-color:#88D4E7"/>
				</linearGradient>
				<path class="st40" d="M408.3,50.9c0.3,0.4,0.8,1.1,1.5,1.6c2.5,1.7,5,0.1,8.2,1.1c1.1,0.3,2.5,1,4,2.7c0.8-4.8-2.4-9-6.3-9.5
					C412.9,46.4,409.9,48.1,408.3,50.9z"/>
			</g>
			
				<linearGradient id="SVGID_10_" gradientUnits="userSpaceOnUse" x1="9264.1416" y1="1987.2933" x2="9277.3037" y2="1987.2933" gradientTransform="matrix(0.5201 0.8541 0.8541 -0.5201 -6090.9653 -6833.1924)">
				<stop  offset="0" style="stop-color:#F89925"/>
				<stop  offset="0.9779" style="stop-color:#FFC50F"/>
				<stop  offset="0.9883" style="stop-color:#88D4E7"/>
			</linearGradient>
			<path class="st41" d="M425.6,60.5c1-0.5,2.2-1.3,3.3-2.5c2-1.9,3.1-4,3.6-5.3c0.3-0.1,2.1-1,2.5-2.9c0.1-0.7,0.1-1.2,0-1.6
				c-0.7-2.3-2.2-6.4-3.9-6.3c-0.4,0-0.6,0.3-0.7,0.4c-5.1,4.5-9.6,5.5-10.1,9.5C419.9,56.2,425,60,425.6,60.5z"/>
			<g>
				<defs>
					<path id="XMLID_59_" d="M423.7,51c-1.2-0.2-2.6,0.3-3.3,1.3c-0.8,1.3,0.6,3.3,3.1,7.7c1.1,2,2.5,4.4,3.9,7.1
						c0.1,4,0.2,7.9,0.4,11.9c0.9,0.1,1.9,0.3,2.8,0.4c1.2-5.6,1-10.3,0.7-13.2c0,0-0.8-6.8-5-13.1C425.8,52.3,425,51.2,423.7,51z"
						/>
				</defs>
				
					<linearGradient id="XMLID_11_" gradientUnits="userSpaceOnUse" x1="637.4033" y1="326.1765" x2="621.5253" y2="337.4694" gradientTransform="matrix(0.9526 0.3042 -0.3042 0.9526 -72.2447 -442.4125)">
					<stop  offset="0" style="stop-color:#F89925"/>
					<stop  offset="1" style="stop-color:#FFC50F"/>
				</linearGradient>
				<use xlink:href="#XMLID_59_"  style="overflow:visible;fill:url(#XMLID_11_);"/>
				<clipPath id="XMLID_12_">
					<use xlink:href="#XMLID_59_"  style="overflow:visible;"/>
				</clipPath>
			</g>
		</g>
	</g>
	<path class="st9" d="M455.5,44.6l8.8-4.4l2.4,4l2.3,4l-0.7,0.4c-0.5,0-1-0.2-1.3-0.5l-1.2-1.2l-0.3-0.3c-0.9-0.8-2.3-0.9-3.3-0.3
		l-4.7,2.8L455.5,44.6z"/>
	<path class="st9" d="M456.9,25.9l8.1-5.7l3,3.5l3,3.6l-0.6,0.5c-0.5,0.1-1,0-1.4-0.3l-1.3-0.9l-0.4-0.2c-1.1-0.6-2.4-0.5-3.3,0.3
		l-4.1,3.6L456.9,25.9z"/>
	<polyline class="st3" points="392.3,106 426.5,113.6 433.7,81.5 	"/>
	
		<rect x="434.9" y="195.9" transform="matrix(0.9755 0.2198 -0.2198 0.9755 54.4393 -90.9854)" class="st8" width="2.3" height="6.5"/>
	<circle class="st8" cx="290.9" cy="133.2" r="3.8"/>
	<circle class="st8" cx="317.6" cy="101.2" r="3.5"/>
	<g>
		<circle class="st8" cx="366.7" cy="160.6" r="2.8"/>
	</g>
	<g>
		<circle class="st8" cx="373.2" cy="146.3" r="2.8"/>
	</g>
	<g>
		<line class="st42" x1="96.7" y1="85.1" x2="78.5" y2="77.4"/>
		<line class="st42" x1="91.2" y1="99" x2="96.7" y2="85.1"/>
		<line class="st42" x1="114.6" y1="64.7" x2="96.7" y2="85.1"/>
		<circle class="st8" cx="97" cy="85.2" r="3.8"/>
		<circle class="st43" cx="114.6" cy="64.7" r="1.9"/>
		<circle class="st43" cx="91.2" cy="99" r="1.9"/>
		<circle class="st43" cx="78.5" cy="77.4" r="1.9"/>
	</g>
	<g>
		<line class="st42" x1="471.1" y1="257.7" x2="444.8" y2="246.7"/>
		<line class="st42" x1="468" y1="283.8" x2="471.1" y2="257.7"/>
		<line class="st42" x1="495.2" y1="245.2" x2="471.1" y2="257.7"/>
		<circle class="st35" cx="471.1" cy="257.7" r="3.8"/>
		<circle class="st44" cx="444.8" cy="246.7" r="1.9"/>
		<circle class="st44" cx="495.2" cy="245.2" r="1.9"/>
		<circle class="st44" cx="468" cy="283.8" r="1.9"/>
	</g>
	<g>
		<line class="st42" x1="561.6" y1="212.6" x2="533.7" y2="215"/>
		<line class="st42" x1="533.7" y1="215" x2="552.2" y2="180.7"/>
		<circle class="st43" cx="561.6" cy="212.6" r="3"/>
		<circle id="XMLID_58_" class="st8" cx="551.2" cy="179.9" r="8.5"/>
		<path class="st45" d="M548,186c-0.5,0.3-1.1,0.6-1.5,1c1.5,1,3.4,1.5,5.4,1.4c1.8-0.2,3.5-0.9,4.8-2c-0.7-0.4-1.2-0.8-1.7-1
			c-0.9-0.3-1.6-1.1-1.7-2c-0.1-0.7,0.2-1.4,0.7-1.8c0.9-0.9,1.5-2.3,1.3-3.7c-0.3-2.3-2.3-4-4.6-3.9c-2.6,0.1-4.5,2.3-4.3,4.8
			c0.1,1.4,0.8,2.5,1.9,3.3c0.6,0.4,0.9,1,1,1.7l0,0C549.4,184.6,548.9,185.5,548,186z"/>
		<circle id="XMLID_57_" class="st44" cx="533.7" cy="215" r="8.5"/>
		<path class="st46" d="M530.7,221.4c-0.5,0.3-0.9,0.6-1.4,0.9c1.5,0.9,3.2,1.3,5.1,1.2c1.8-0.2,3.5-0.9,4.8-2
			c-0.5-0.3-1-0.5-1.5-0.7c-0.8-0.3-1.3-0.9-1.5-1.8l1.9-0.2c0.3,0,0.5-0.3,0.4-0.5l-0.5-5.2c-0.2-2.5-2.4-4.4-4.9-4.1
			c-1.3,0.1-2.3,0.7-3.1,1.6c-1.2,1.4-1.1,3-1.1,3.3c0,0.1,0.4,4.2,0.4,4.4c0,0,0.1,0.9,0.1,0.9c0,0.3,0.3,0.5,0.5,0.4l1.9-0.2
			C531.9,220.3,531.4,221,530.7,221.4z"/>
	</g>
	<line class="st42" x1="264.9" y1="35.6" x2="244.8" y2="59"/>
	<line class="st42" x1="217.5" y1="36.9" x2="244.8" y2="59"/>
	<circle class="st43" cx="264.9" cy="35.6" r="3"/>
	<circle id="XMLID_56_" class="st35" cx="244.8" cy="59" r="8.5"/>
	<g>
		<path class="st47" d="M243.9,62.5l-3.3-2.8c-0.2-0.2-0.2-0.5-0.1-0.7l1.1-1.3c0.2-0.2,0.5-0.2,0.7-0.1l1.6,1.4l3-3.6
			c0.2-0.2,0.5-0.2,0.7-0.1l1.3,1.1c0.2,0.2,0.2,0.5,0.1,0.7l-4.5,5.3C244.4,62.6,244.1,62.6,243.9,62.5z"/>
	</g>
	<circle id="XMLID_55_" class="st44" cx="217.5" cy="36.9" r="8.5"/>
	<path class="st46" d="M214.5,43.3c-0.5,0.3-0.9,0.6-1.4,0.9c1.5,0.9,3.2,1.3,5.1,1.2c1.8-0.2,3.5-0.9,4.8-2c-0.5-0.3-1-0.5-1.5-0.7
		c-0.8-0.3-1.3-0.9-1.5-1.8l1.9-0.2c0.3,0,0.5-0.3,0.4-0.5l-0.5-5.2c-0.2-2.5-2.4-4.4-4.9-4.1c-1.3,0.1-2.3,0.7-3.1,1.6
		c-1.2,1.4-1.1,3-1.1,3.3c0,0.1,0.4,4.2,0.4,4.4c0,0,0.1,0.9,0.1,0.9c0,0.3,0.3,0.5,0.5,0.4l1.9-0.2
		C215.7,42.1,215.2,42.9,214.5,43.3z"/>
	<path class="st8" d="M175.5,130.1l3.6-0.2c0.2,0,0.4,0.2,0.3,0.5c-0.2,0.1-0.3,0.3-0.3,0.4c0,0.1,0.2,0.1,0.2,0.2
		c0.1,0.2-0.3,0.5-0.4,0.6c-0.1,0.1-0.3,0.2-0.4,0.3l-0.3,0.5c-0.1,0.2-0.3,0.3-0.5,0.3l-0.6,0.5c-0.1,0.3-1.3,0.2-1.3,0.2l-1.5-0.5
		c-0.1,0-0.1,0-0.2,0c-0.2-0.1-0.3-0.4-0.2-0.6l1.2-2C175.2,130.2,175.3,130.2,175.5,130.1z"/>
	<path class="st8" d="M172.4,132.1c0,0.6-2,1.3,1.6,1c0.2,0,1.1,0.1,1.9-0.5c0.8-0.7,0.4-1.5,1.2-2.1c0.4-0.3,0.8-0.2,1.1-0.6
		c0.2-0.3,0.4-0.7,0.3-0.9c-0.2-0.2-0.6,0.2-1.6,0.6c-1,0.4-1.1,0.2-1.9,0.6c-0.3,0.2-0.5,0.3-1.2,0.6c-0.4,0.2-0.4,0.2-0.5,0.3
		C173,131.2,172.4,131.6,172.4,132.1z"/>
	<g>
		
			<linearGradient id="SVGID_11_" gradientUnits="userSpaceOnUse" x1="74.2388" y1="38.3368" x2="112.0881" y2="38.3368" gradientTransform="matrix(0.9963 -8.616833e-02 8.616833e-02 0.9963 34.7854 104.7587)">
			<stop  offset="0" style="stop-color:#2BC2E1"/>
			<stop  offset="1" style="stop-color:#02A3BF"/>
		</linearGradient>
		<path class="st48" d="M120.6,143.5c3.3-0.4,7.9-1.3,13.3-3.1c5.2-2.9,10.5-5.8,15.7-8.7c-3.4-1.8-6.9-3.5-10.3-5.3
			c-3.1,2.9-6.1,5.8-9.2,8.7c-2.5,0.6-4.4,1.2-5.6,1.8c-2,0.8-3.5,1.7-6.3,2.6c-1,0.3-1.8,0.6-2.3,0.7c-1.7,1-3.5,2.3-3.3,3
			C113,144.5,118.2,143.8,120.6,143.5z"/>
		<path class="st26" d="M141,147.5c0.4-0.2,0.7-0.4,0.9-0.8c1.4-2.3,2.8-4.9,4.1-7.7c1.2-2.4,2.2-4.8,3-7c-3.1-2.1-6.2-4.2-9.2-6.3
			c-0.2,0.5-0.6,1.1-0.9,1.9c0,0-0.4,1-0.8,2c-0.8,2.1-0.7,4.8-0.8,6.9c-0.1,1.4-0.4,3.5-1.3,6c-2.8,0.4-4.7,1.2-6,1.9
			c-3,1.6-3.9,3.3-7.5,5.8c-1.9,1.3-3.6,2.1-4.7,2.6c1.7,0.4,3.4,0.7,5.1,1.1c3.1-1,6.3-2,9.6-3.2
			C135.6,149.7,138.4,148.6,141,147.5z"/>
		<g>
			<path class="st45" d="M129.7,123.7l-1.6,0.1c-1.7,0.7-2.5,1.2-2.5,1.5c0,0.1,0.1,0.2,0.3,0.2c-0.1,0.1-0.3,0.4-0.3,0.8
				c0,0.2,0,0.5,0.1,0.6c0.1,0.1,0.4,0,1.2-0.9c0.5-0.1,0.9-0.2,1.4-0.3c-0.1,0.3-0.2,0.5-0.3,0.6c-0.2,0.3-0.5,0.4-0.5,0.7
				c0,0.1,0,0.2,0,0.3c0.1,0.1,0.3,0.1,0.5,0c0.6-0.4,1.2-0.8,1.7-1.2c0.3-0.4,0.6-0.8,0.9-1.2L129.7,123.7z"/>
			<g>
				<path class="st49" d="M153.2,116.9c1.3,1,2.6,1.9,3.9,2.9c0-0.4,0.1-1.2,0.5-2c0.5-0.9,1.1-1.3,1.4-1.5
					c-1.2-0.9-2.3-1.9-3.5-2.8c-0.1,0.5-0.3,1.2-0.8,1.9C154.2,116,153.6,116.6,153.2,116.9z"/>
				<g>
					<defs>
						<path id="XMLID_54_" d="M150.8,115.6c-0.1-0.3-0.6-1.2-5.4-1.5c-3.3-0.3-6-0.1-7.8,0.1c-1.9,1.8-4,3.9-6,6.3
							c-0.9,1.1-1.7,2.2-2.5,3.2c0.5,0.7,0.9,1.4,1.4,2c0.7-0.6,1.8-1.6,3-2.7c1.5-1.3,1.8-1.6,2.1-1.9c0.8-0.8,1.9-1.9,3.2-3.4
							c0.6,0,1.3,0.1,2.1,0.2c2.9,0.5,5.1,1.6,6.8,2.6C149.9,118.8,151.4,116.8,150.8,115.6z"/>
					</defs>
					<use xlink:href="#XMLID_54_"  style="overflow:visible;fill:#2BC2E1;"/>
					<clipPath id="XMLID_13_">
						<use xlink:href="#XMLID_54_"  style="overflow:visible;"/>
					</clipPath>
					<line class="st50" x1="129.7" y1="120.9" x2="133.8" y2="125.1"/>
					<line class="st50" x1="131" y1="119.7" x2="135.1" y2="123.8"/>
				</g>
				<path class="st51" d="M161.7,112.1c-0.1,1-0.7,2.4-1.1,3c-0.1,0.1-0.1,0.8-0.1,1.1c0,0.3-0.6-0.1-0.7,0l-1.4,1.4
					c-0.3,0.3-0.7,0.3-1.1,0.1l-0.4-0.2l-1.7-1.4c-0.5-0.4-0.5-1.1-0.1-1.6c1-1.1,1.7-1.3,2.2-1.2c0.4,0,0.4,0.2,0.9,0.2
					c0.9,0.1,1.5-0.3,2.3-0.5c0,0,0.1,0,0.3-0.1c0.2-0.1,0.2-0.2,0.3-0.3C161.4,112.4,161.5,112.3,161.7,112.1z"/>
				<g>
					<defs>
						<path id="XMLID_53_" d="M148,114.8c0.4,0,0.7,0,1.1,0c0,0,1.2,0.1,2.5,0.6c4,1.6,6.8,5.1,6.8,5.1c0.3,0.4,0.6,0.9,0.9,1.3
							c1.9,2.7,3.6,5.4,5.1,8c3.4,0.1,6.7,0.2,10.1,0.4c0,1,0,2-0.1,3c-2.5,0.3-5.4,0.6-8.5,0.5c-1.5,0-3-0.1-4.3-0.3
							c-1.2-1.4-2.3-2.9-3.5-4.4c-1-1.2-1.9-2.4-2.8-3.6c-0.1,0.9-0.5,1.3-0.8,1.6c-0.8,0.9-1.6,0.6-2.6,1.5
							c-0.4,0.3-0.3,0.4-1.6,2.3c-0.4,0.7-0.8,1.2-1.1,1.5c-0.7-1.1-1.5-1.7-2.1-2c-0.6-0.3-1.2-0.4-2.2-0.9
							c-0.3-0.2-0.7-0.4-1.1-0.7c-1.4-1-2.8-2-2.9-3.4c-0.1-0.7,0.3-1,2.5-4.2c1.3-1.8,0.9-1.4,2.4-3.4
							C146.8,116.5,147.5,115.5,148,114.8z"/>
					</defs>
					
						<linearGradient id="XMLID_14_" gradientUnits="userSpaceOnUse" x1="216.6784" y1="2788.9597" x2="251.1536" y2="2788.9597" gradientTransform="matrix(0.9557 0.2942 -0.2942 0.9557 755.5642 -2608.0498)">
						<stop  offset="0" style="stop-color:#00B8D9"/>
						<stop  offset="1" style="stop-color:#88D4E7"/>
					</linearGradient>
					<use xlink:href="#XMLID_53_"  style="overflow:visible;fill:url(#XMLID_14_);"/>
					<clipPath id="XMLID_15_">
						<use xlink:href="#XMLID_53_"  style="overflow:visible;"/>
					</clipPath>
					<path class="st52" d="M161.9,126.2l-1.6,1c-0.3,0.2-0.7,0.1-0.9-0.2l-1.5-2.4l2.8-1.7l1.5,2.4
						C162.3,125.6,162.2,126,161.9,126.2z"/>
					<line class="st53" x1="171.1" y1="128.9" x2="171.4" y2="134.3"/>
					<line class="st53" x1="172.8" y1="128.8" x2="173" y2="134.2"/>
				</g>
				<path class="st7" d="M161.7,112.1l-0.3,0.3c-0.8,1-1.9,1.5-3.1,1.5l-0.1-0.1c-0.2-0.2-0.4-0.3-0.7-0.3c-0.4,0-0.8,0.3-0.8,0.7
					l-0.1,0.4c-0.2,0.2-0.5,0.5-1,0.7c0,0,0,0,0,0c-0.2,0.1-0.4,0-0.5-0.1c-0.3-0.1-0.5,0.1-0.7,0c-0.4-0.1-0.4-1.4-0.4-2.1
					c0.1-1.3,0.2-2,0.5-2.7c0.3-0.6,1-1.1,1.6-1.4c0.1-0.1,0.7-0.4,1.7-0.5c0.9-0.1,2.3-0.3,3.3,0.6c0.2,0.1,1,0.9,1,1.9
					C162,111.5,161.8,111.9,161.7,112.1z"/>
				<path class="st7" d="M156.6,109.8c0.1-0.1,0.3-0.7,0.1-1.1c-0.3-0.5-1-0.5-1.4-0.5c-0.5,0.1-1.1,0.4-1.2,1.1
					c-0.1,0.8,0.7,1.5,1.2,1.4c0,0,0,0,0.1,0C155.5,110.6,156.2,110.5,156.6,109.8z"/>
				<path class="st9" d="M146.4,118.8c1.3-1.9,3.9-2.4,5.8-1.1c1.9,1.3,2.4,3.9,1.1,5.8L146.4,118.8z"/>
				<g>
					<defs>
						<path id="XMLID_52_" d="M151.6,108.9c-1.3,4.2,1.1,8.6,5.2,9.9c4.2,1.3,8.6-1.1,9.9-5.2c1.3-4.2-1.1-8.6-5.2-9.9
							C157.3,102.4,152.9,104.7,151.6,108.9z"/>
					</defs>
					
						<linearGradient id="XMLID_16_" gradientUnits="userSpaceOnUse" x1="1148.8246" y1="2774.3979" x2="1164.6885" y2="2774.3979" gradientTransform="matrix(-0.9557 -0.2942 -0.2942 0.9557 2080.9548 -2200.0515)">
						<stop  offset="0" style="stop-color:#FAFCFE;stop-opacity:0.1"/>
						<stop  offset="1" style="stop-color:#F4F5F7"/>
					</linearGradient>
					<use xlink:href="#XMLID_52_"  style="overflow:visible;fill:url(#XMLID_16_);"/>
					<clipPath id="XMLID_17_">
						<use xlink:href="#XMLID_52_"  style="overflow:visible;"/>
					</clipPath>
					<path class="st54" d="M154.6,104.7c0.4,0.3,1,0.9,1.5,1.7c1.5,2.6-0.2,5.1,0.5,8.3c0.2,1.1,0.8,2.6,2.4,4.2
						c-4.9,0.4-8.9-3.1-9.1-7C149.7,109.1,151.6,106.2,154.6,104.7z"/>
				</g>
				<g>
					<defs>
						<path id="XMLID_51_" d="M151.6,108.9c-1.3,4.2,1.1,8.6,5.2,9.9c4.2,1.3,8.6-1.1,9.9-5.2c1.3-4.2-1.1-8.6-5.2-9.9
							C157.3,102.4,152.9,104.7,151.6,108.9z"/>
					</defs>
					
						<linearGradient id="XMLID_18_" gradientUnits="userSpaceOnUse" x1="1148.8246" y1="2774.3979" x2="1164.6885" y2="2774.3979" gradientTransform="matrix(-0.9557 -0.2942 -0.2942 0.9557 2080.9548 -2200.0515)">
						<stop  offset="0" style="stop-color:#FAFCFE;stop-opacity:0.1"/>
						<stop  offset="1" style="stop-color:#F4F5F7"/>
					</linearGradient>
					<use xlink:href="#XMLID_51_"  style="overflow:visible;fill:url(#XMLID_18_);"/>
					<clipPath id="XMLID_19_">
						<use xlink:href="#XMLID_51_"  style="overflow:visible;"/>
					</clipPath>
					<path class="st55" d="M154.6,104.7c0.4,0.3,1,0.9,1.5,1.7c1.5,2.6-0.2,5.1,0.5,8.3c0.2,1.1,0.8,2.6,2.4,4.2
						c-4.9,0.4-8.9-3.1-9.1-7C149.7,109.1,151.6,106.2,154.6,104.7z"/>
				</g>
				
					<rect x="150.2" y="116.3" transform="matrix(0.8339 0.5518 -0.5518 0.8339 90.2788 -65.9697)" class="st2" width="9.1" height="1.4"/>
				
					<rect x="139.2" y="128.2" transform="matrix(0.811 0.5851 -0.5851 0.811 102.6999 -60.5015)" class="st45" width="11.6" height="1"/>
			</g>
			<polygon class="st29" points="143.4,129.5 146.1,131 147,128 145.5,127.1 			"/>
			<polygon class="st29" points="138.8,126.9 141.5,128.4 142.4,125.4 140.9,124.5 			"/>
			<path class="st56" d="M139.5,124.7l7.7,4.3l6-10.7c0.5-0.9,0.2-2-0.7-2.5l-4.5-2.5c-0.9-0.5-2-0.2-2.5,0.7L139.5,124.7z"/>
			<path class="st9" d="M140.3,125.1l4.7,2.6l3.7-6.5c0.3-0.5,0.1-1.2-0.4-1.5l-2.7-1.5c-0.5-0.3-1.2-0.1-1.5,0.4L140.3,125.1z"/>
		</g>
		<path class="st2" d="M125.7,150.1c0-0.1-0.1-0.5-0.3-1c-0.1-0.3-0.1-0.6-0.2-0.9c-1.4,0.6-2.6,1.2-3.3,1.6c-1.7,0.9-2.8,1.6-4.6,2
			c-0.4,0.1-0.7,0.1-0.9,0.2l0.3,2.1c0.1,0.1,0.2,0.2,0.4,0.3c-0.1,0.2-0.1,0.4-0.2,0.6l0.8,5.3c0,0.3,0.3,0.5,0.6,0.4l0.2-2.2
			c0.2-1.2,0.6-1.9,0.9-2.4c0.5-0.7,1.3-1.3,5.7-2.8c0.8-0.3,1.5-0.5,2-0.7C126.8,152.3,126,151.1,125.7,150.1z"/>
		<path class="st2" d="M120.5,140.8c-0.1-0.5-0.1-1-0.1-1c0-0.3,0-0.6,0-0.9c-1.5,0.4-2.8,0.7-3.6,1c-1.8,0.6-3,1.1-4.9,1.2
			c-0.4,0-0.7,0-1,0l-0.1,2.1c0.1,0.1,0.2,0.2,0.3,0.4c-0.1,0.2-0.2,0.4-0.3,0.6l-0.2,5.4c0,0.3,0.3,0.6,0.5,0.5l0.6-2.1
			c0.3-1.2,0.8-1.8,1.2-2.2c0.7-0.6,1.5-1,5.3-1.6c1.1-0.2,2.1-0.3,2.8-0.4C121,143.4,120.7,142,120.5,140.8z"/>
	</g>
	
		<rect x="307.4" y="132.4" transform="matrix(0.958 -0.2868 0.2868 0.958 -25.6473 94.5336)" class="st19" width="4.8" height="4.8"/>
	<polygon class="st19" points="321.9,174.1 324.1,176.1 326.3,178.2 323.4,179 320.6,179.9 321.3,177 	"/>
	<circle class="st19" cx="316.2" cy="155.7" r="2.6"/>
	<polygon class="st19" points="302.6,111.2 304,112.8 306.1,112.4 305.1,114.3 306,116.2 304,115.8 302.4,117.3 302.2,115.2 
		300.3,114.2 302.2,113.3 	"/>
	<circle class="st0" cx="99.4" cy="281.6" r="1.9"/>
	<circle class="st0" cx="59.5" cy="261.9" r="1.9"/>
	<circle class="st0" cx="73.7" cy="255.1" r="1.9"/>
	<circle class="st0" cx="50.7" cy="227.4" r="1.9"/>
	<circle class="st0" cx="30.7" cy="279" r="1.9"/>
</g>
</svg>
